<?xml version="1.0" encoding="utf-8"?>
<!-- Generator: Adobe Illustrator 24.2.0, SVG Export Plug-In . SVG Version: 6.00 Build 0)  -->
<svg version="1.1" id="Camada_1" xmlns="http://www.w3.org/2000/svg" xmlns:xlink="http://www.w3.org/1999/xlink" x="0px" y="0px"
	 viewBox="0 0 362 223" style="enable-background:new 0 0 362 223;" xml:space="preserve">
<style type="text/css">
	.st0{clip-path:url(#SVGID_2_);fill:#43D539;}
</style>
<g>
	<defs>
		<rect id="SVGID_1_" x="8.47" y="8.78" width="342.75" height="204.75"/>
	</defs>
	<clipPath id="SVGID_2_">
		<use xlink:href="#SVGID_1_"  style="overflow:visible;"/>
	</clipPath>
	<path class="st0" d="M162.32,80.4c-0.06,0.05-0.12,0.09-0.17,0.13l7.86,4.52c-2.29-32.55-23.43-60.53-54.05-71.63
		C85.5,2.36,50.33,11.99,28.86,35.94C6.97,60.36,2.49,96.05,16.44,125.5c13.93,29.41,45.76,47.35,77.94,45.39
		c3.41-0.21,6.82-0.71,10.18-1.31c-2.14-1.21-4.28-2.44-6.43-3.66c3.71,14.55-2.98,28.04-12.61,38.7c-4.07,4.51,1,10.85,6.33,8.23
		c27.19-13.42,51.18-33.62,65.3-60.84c8.75-16.86,13.46-35.87,13.7-54.87c0.06-4.54-0.13-9.13-0.86-13.62
		c-1.08-6.65-11.15-3.82-10.07,2.78c0.08,0.52,0.2,1.46-0.1-0.8c0.08,0.57,0.14,1.14,0.2,1.72c0.21,2.04,0.31,4.1,0.37,6.15
		c0.08,3.12,0.01,6.24-0.17,9.36c-0.26,4.42-0.63,7.38-1.25,11.07c-3.76,22.54-14.28,43.23-29.99,59.78
		c-12.06,12.71-26.74,22.5-42.39,30.21c2.11,2.74,4.22,5.48,6.33,8.22c12.2-13.51,19.97-30.56,15.3-48.89
		c-0.75-2.94-3.67-4.14-6.43-3.65c-32.05,5.71-63.6-11.51-77.1-40.94C11.6,90.02,20.63,55.78,44.04,35.71
		c19.86-17.03,49.2-21.06,73.08-10.67c24,10.43,40.6,33.87,42.43,60c0.25,3.51,4.43,7.11,7.86,4.52c0.06-0.05,0.12-0.09,0.17-0.14
		c2.27-1.7,3.44-4.48,1.87-7.16C168.16,80.02,164.61,78.68,162.32,80.4"/>
	<path class="st0" d="M342.67,80.4c-0.06,0.05-0.12,0.09-0.17,0.13l7.86,4.52c-2.29-32.55-23.43-60.53-54.05-71.63
		c-30.45-11.05-65.63-1.43-87.1,22.52c-21.89,24.42-26.36,60.12-12.42,89.56c13.93,29.41,45.76,47.35,77.94,45.39
		c3.41-0.21,6.83-0.71,10.18-1.31c-2.14-1.21-4.28-2.44-6.42-3.66c3.71,14.55-2.98,28.04-12.61,38.7c-4.07,4.51,1,10.85,6.32,8.23
		c27.19-13.42,51.19-33.62,65.31-60.84c8.74-16.86,13.46-35.87,13.69-54.87c0.06-4.54-0.13-9.13-0.86-13.62
		c-1.08-6.65-11.15-3.82-10.07,2.78c0.08,0.52,0.2,1.46-0.1-0.8c0.07,0.57,0.13,1.14,0.2,1.72c0.2,2.04,0.31,4.1,0.36,6.15
		c0.08,3.12,0.01,6.24-0.17,9.36c-0.26,4.42-0.63,7.38-1.25,11.07c-3.75,22.54-14.28,43.23-29.98,59.78
		c-12.06,12.71-26.75,22.5-42.4,30.21c2.12,2.74,4.22,5.48,6.33,8.22c12.2-13.51,19.98-30.56,15.3-48.89
		c-0.75-2.94-3.66-4.14-6.42-3.65c-32.05,5.71-63.6-11.51-77.1-40.94c-13.09-28.53-4.05-62.77,19.36-82.84
		c19.86-17.03,49.2-21.06,73.08-10.67c24,10.43,40.6,33.87,42.43,60c0.25,3.51,4.42,7.1,7.86,4.52c0.06-0.05,0.11-0.09,0.17-0.14
		c2.27-1.7,3.43-4.49,1.87-7.16C348.5,80.02,344.95,78.68,342.67,80.4"/>
</g>
</svg>
