<?xml version="1.0" encoding="utf-8"?>
<!-- Generator: Adobe Illustrator 24.2.0, SVG Export Plug-In . SVG Version: 6.00 Build 0)  -->
<svg version="1.1" id="Camada_1" xmlns="http://www.w3.org/2000/svg" xmlns:xlink="http://www.w3.org/1999/xlink" x="0px" y="0px"
	 viewBox="0 0 362 223" style="enable-background:new 0 0 362 223;" xml:space="preserve">
<style type="text/css">
	.st0{clip-path:url(#SVGID_2_);fill:#43D539;}
</style>
<g>
	<defs>
		<rect id="SVGID_1_" x="8.47" y="8.78" width="342.75" height="204.75"/>
	</defs>
	<clipPath id="SVGID_2_">
		<use xlink:href="#SVGID_1_"  style="overflow:visible;"/>
	</clipPath>
	<path class="st0" d="M197.36,141.92c0.06-0.05,0.12-0.09,0.17-0.13l-7.86-4.52c2.29,32.55,23.43,60.53,54.05,71.63
		c30.45,11.05,65.63,1.43,87.1-22.52c21.89-24.42,26.37-60.12,12.42-89.56c-13.93-29.41-45.76-47.35-77.94-45.39
		c-3.41,0.21-6.82,0.71-10.18,1.31c2.14,1.21,4.28,2.44,6.43,3.66c-3.71-14.55,2.98-28.04,12.61-38.7c4.07-4.51-1-10.85-6.33-8.23
		c-27.19,13.42-51.18,33.62-65.3,60.84c-8.75,16.86-13.46,35.87-13.7,54.87c-0.06,4.54,0.13,9.13,0.86,13.62
		c1.08,6.65,11.15,3.82,10.07-2.78c-0.08-0.52-0.2-1.46,0.1,0.8c-0.08-0.57-0.14-1.14-0.2-1.72c-0.21-2.04-0.31-4.1-0.37-6.15
		c-0.08-3.12-0.01-6.24,0.17-9.36c0.26-4.42,0.63-7.38,1.25-11.07c3.76-22.54,14.28-43.23,29.99-59.78
		c12.06-12.71,26.74-22.5,42.39-30.21c-2.11-2.74-4.22-5.48-6.33-8.22c-12.2,13.51-19.97,30.56-15.3,48.89
		c0.75,2.94,3.67,4.14,6.43,3.65c32.05-5.71,63.6,11.51,77.1,40.94c13.09,28.53,4.05,62.77-19.35,82.84
		c-19.86,17.03-49.2,21.06-73.08,10.67c-24-10.43-40.6-33.87-42.43-60c-0.25-3.51-4.43-7.11-7.86-4.52
		c-0.06,0.05-0.12,0.09-0.17,0.14c-2.27,1.7-3.44,4.48-1.87,7.16C191.52,142.3,195.07,143.64,197.36,141.92"/>
	<path class="st0" d="M17.01,141.92c0.06-0.05,0.12-0.09,0.17-0.13l-7.86-4.52c2.29,32.55,23.43,60.53,54.05,71.63
		c30.45,11.05,65.63,1.43,87.1-22.52c21.89-24.42,26.36-60.12,12.42-89.56c-13.93-29.41-45.76-47.35-77.94-45.39
		c-3.41,0.21-6.83,0.71-10.18,1.31c2.14,1.21,4.28,2.44,6.42,3.66c-3.71-14.55,2.98-28.04,12.61-38.7c4.07-4.51-1-10.85-6.32-8.23
		C60.29,22.89,36.29,43.09,22.17,70.31c-8.74,16.86-13.46,35.87-13.69,54.87c-0.06,4.54,0.13,9.13,0.86,13.62
		c1.08,6.65,11.15,3.82,10.07-2.78c-0.08-0.52-0.2-1.46,0.1,0.8c-0.07-0.57-0.13-1.14-0.2-1.72c-0.2-2.04-0.31-4.1-0.36-6.15
		c-0.08-3.12-0.01-6.24,0.17-9.36c0.26-4.42,0.63-7.38,1.25-11.07c3.75-22.54,14.28-43.23,29.98-59.78
		c12.06-12.71,26.75-22.5,42.4-30.21c-2.12-2.74-4.22-5.48-6.33-8.22c-12.2,13.51-19.98,30.56-15.3,48.89
		c0.75,2.94,3.66,4.14,6.42,3.65c32.05-5.71,63.6,11.51,77.1,40.94c13.09,28.53,4.05,62.77-19.36,82.84
		c-19.86,17.03-49.2,21.06-73.08,10.67c-24-10.43-40.6-33.87-42.43-60c-0.25-3.51-4.42-7.1-7.86-4.52
		c-0.06,0.05-0.11,0.09-0.17,0.14c-2.27,1.7-3.43,4.49-1.87,7.16C11.18,142.3,14.73,143.64,17.01,141.92"/>
</g>
</svg>
