<?xml version="1.0" encoding="utf-8"?>
<!-- Generator: Adobe Illustrator 18.1.1, SVG Export Plug-In . SVG Version: 6.00 Build 0)  -->
<svg version="1.1" id="Camada_1" xmlns="http://www.w3.org/2000/svg" xmlns:xlink="http://www.w3.org/1999/xlink" x="0px" y="0px"
	 viewBox="11 417.9 1406.3 306" enable-background="new 11 417.9 1406.3 306" xml:space="preserve">
<g>
	<g>
		<defs>
			<rect id="SVGID_1_" x="21.1" y="435.8" width="192.7" height="113.9"/>
		</defs>
		<clipPath id="SVGID_2_">
			<use xlink:href="#SVGID_1_"  overflow="visible"/>
		</clipPath>
		<path clip-path="url(#SVGID_2_)" fill="#43D539" d="M127.3,509.9C127.4,509.9,127.4,509.8,127.3,509.9l-4.3-2.6
			c1.3,18.1,13.2,33.7,30.4,39.9c17.1,6.2,36.9,0.8,49-12.5c12.3-13.6,14.8-33.4,7-49.8c-7.8-16.4-25.7-26.3-43.8-25.3
			c-1.9,0.1-3.8,0.4-5.7,0.7c1.2,0.7,2.4,1.4,3.6,2c-2.1-8.1,1.7-15.6,7.1-21.5c2.3-2.5-0.6-6-3.6-4.6
			c-15.3,7.5-28.8,18.7-36.7,33.8c-4.9,9.4-7.6,20-7.7,30.5c0,2.5,0.1,5.1,0.5,7.6c0.6,3.7,6.3,2.1,5.7-1.5c0-0.3-0.1-0.8,0.1,0.4
			c0-0.3-0.1-0.6-0.1-1c-0.1-1.1-0.2-2.3-0.2-3.4c0-1.7,0-3.5,0.1-5.2c0.1-2.5,0.4-4.1,0.7-6.2c2.1-12.5,8-24,16.9-33.3
			c6.8-7.1,15-12.5,23.8-16.8c-1.2-1.5-2.4-3.1-3.6-4.6c-6.9,7.5-11.2,17-8.6,27.2c0.4,1.6,2.1,2.3,3.6,2c18-3.2,35.8,6.4,43.4,22.8
			c7.4,15.9,2.3,34.9-10.9,46.1c-11.2,9.5-27.7,11.7-41.1,5.9c-13.5-5.8-22.8-18.8-23.9-33.4c-0.1-1.9-2.5-4-4.4-2.5
			c0,0-0.1,0.1-0.1,0.1c-1.3,1-1.9,2.5-1.1,4C124.1,510.1,126.1,510.9,127.3,509.9"/>
	</g>
	<g>
		<defs>
			<rect id="SVGID_3_" x="21.1" y="435.8" width="192.7" height="113.9"/>
		</defs>
		<clipPath id="SVGID_4_">
			<use xlink:href="#SVGID_3_"  overflow="visible"/>
		</clipPath>
		<path clip-path="url(#SVGID_4_)" fill="#43D539" d="M25.9,509.9C26,509.9,26,509.8,25.9,509.9l-4.3-2.6
			c1.3,18.1,13.2,33.7,30.4,39.9c17.1,6.2,36.9,0.8,49-12.5c12.3-13.6,14.8-33.4,7-49.8c-7.8-16.4-25.7-26.3-43.8-25.3
			c-1.9,0.1-3.8,0.4-5.7,0.7c1.2,0.7,2.4,1.4,3.6,2c-2.1-8.1,1.7-15.6,7.1-21.5c2.3-2.5-0.6-6-3.6-4.6
			c-15.3,7.5-28.8,18.7-36.7,33.8c-4.9,9.4-7.6,20-7.7,30.5c0,2.5,0.1,5.1,0.5,7.6c0.6,3.7,6.3,2.1,5.7-1.5c0-0.3-0.1-0.8,0.1,0.4
			c0-0.3-0.1-0.6-0.1-1c-0.1-1.1-0.2-2.3-0.2-3.4c0-1.7,0-3.5,0.1-5.2c0.1-2.5,0.4-4.1,0.7-6.2c2.1-12.5,8-24,16.9-33.3
			c6.8-7.1,15-12.5,23.8-16.8c-1.2-1.5-2.4-3.1-3.6-4.6c-6.9,7.5-11.2,17-8.6,27.2c0.4,1.6,2.1,2.3,3.6,2c18-3.2,35.8,6.4,43.4,22.8
			c7.4,15.9,2.3,34.9-10.9,46.1c-11.2,9.5-27.7,11.7-41.1,5.9c-13.5-5.8-22.8-18.8-23.9-33.4c-0.1-1.9-2.5-4-4.4-2.5
			c0,0-0.1,0.1-0.1,0.1c-1.3,1-1.9,2.5-1.1,4C22.7,510.1,24.6,510.9,25.9,509.9"/>
	</g>
</g>
<g>
	<g>
		<defs>
			<rect id="SVGID_5_" x="-19.5" y="-152.3" width="1460.2" height="1460.2"/>
		</defs>
		<clipPath id="SVGID_6_">
			<use xlink:href="#SVGID_5_"  overflow="visible"/>
		</clipPath>
		<g clip-path="url(#SVGID_6_)">
			<text transform="matrix(1 0 0 1 224.1141 609.2502)" fill="#545353" font-family="'ArialMT'" font-size="79.1581">O</text>
		</g>
	</g>
	<g>
		<defs>
			<rect id="SVGID_7_" x="-19.5" y="-152.3" width="1460.2" height="1460.2"/>
		</defs>
		<clipPath id="SVGID_8_">
			<use xlink:href="#SVGID_7_"  overflow="visible"/>
		</clipPath>
		<g clip-path="url(#SVGID_8_)">
			<text transform="matrix(1 0 0 1 278.0223 609.2502)" fill="#545353" font-family="'ArialMT'" font-size="79.1581"> </text>
		</g>
	</g>
	<g>
		<defs>
			<rect id="SVGID_9_" x="-19.5" y="-152.3" width="1460.2" height="1460.2"/>
		</defs>
		<clipPath id="SVGID_10_">
			<use xlink:href="#SVGID_9_"  overflow="visible"/>
		</clipPath>
		<g clip-path="url(#SVGID_10_)">
			<text transform="matrix(1 0 0 1 293.8558 609.2502)" fill="#545353" font-family="'ArialMT'" font-size="79.1581">f</text>
		</g>
	</g>
	<g>
		<defs>
			<rect id="SVGID_11_" x="-19.5" y="-152.3" width="1460.2" height="1460.2"/>
		</defs>
		<clipPath id="SVGID_12_">
			<use xlink:href="#SVGID_11_"  overflow="visible"/>
		</clipPath>
		<g clip-path="url(#SVGID_12_)">
			<text transform="matrix(1 0 0 1 320.2143 609.2502)" fill="#545353" font-family="'ArialMT'" font-size="79.1581">u</text>
		</g>
	</g>
	<g>
		<defs>
			<rect id="SVGID_13_" x="-19.5" y="-152.3" width="1460.2" height="1460.2"/>
		</defs>
		<clipPath id="SVGID_14_">
			<use xlink:href="#SVGID_13_"  overflow="visible"/>
		</clipPath>
		<g clip-path="url(#SVGID_14_)">
			<text transform="matrix(1 0 0 1 364.9353 609.2502)" fill="#545353" font-family="'ArialMT'" font-size="79.1581">t</text>
		</g>
	</g>
	<g>
		<defs>
			<rect id="SVGID_15_" x="-19.5" y="-152.3" width="1460.2" height="1460.2"/>
		</defs>
		<clipPath id="SVGID_16_">
			<use xlink:href="#SVGID_15_"  overflow="visible"/>
		</clipPath>
		<g clip-path="url(#SVGID_16_)">
			<text transform="matrix(1 0 0 1 394.7013 609.2502)" fill="#545353" font-family="'ArialMT'" font-size="79.1581">u</text>
		</g>
	</g>
	<g>
		<defs>
			<rect id="SVGID_17_" x="-19.5" y="-152.3" width="1460.2" height="1460.2"/>
		</defs>
		<clipPath id="SVGID_18_">
			<use xlink:href="#SVGID_17_"  overflow="visible"/>
		</clipPath>
		<g clip-path="url(#SVGID_18_)">
			<text transform="matrix(1 0 0 1 439.4257 609.2502)" fill="#545353" font-family="'ArialMT'" font-size="79.1581">r</text>
		</g>
	</g>
	<g>
		<defs>
			<rect id="SVGID_19_" x="-19.5" y="-152.3" width="1460.2" height="1460.2"/>
		</defs>
		<clipPath id="SVGID_20_">
			<use xlink:href="#SVGID_19_"  overflow="visible"/>
		</clipPath>
		<g clip-path="url(#SVGID_20_)">
			<text transform="matrix(1 0 0 1 470.2986 609.2502)" fill="#545353" font-family="'ArialMT'" font-size="79.1581">o</text>
		</g>
	</g>
	<g>
		<defs>
			<rect id="SVGID_21_" x="-19.5" y="-152.3" width="1460.2" height="1460.2"/>
		</defs>
		<clipPath id="SVGID_22_">
			<use xlink:href="#SVGID_21_"  overflow="visible"/>
		</clipPath>
		<g clip-path="url(#SVGID_22_)">
			<text transform="matrix(1 0 0 1 514.0723 609.2502)" fill="#545353" font-family="'ArialMT'" font-size="79.1581"> </text>
		</g>
	</g>
	<g>
		<defs>
			<rect id="SVGID_23_" x="-19.5" y="-152.3" width="1460.2" height="1460.2"/>
		</defs>
		<clipPath id="SVGID_24_">
			<use xlink:href="#SVGID_23_"  overflow="visible"/>
		</clipPath>
		<g clip-path="url(#SVGID_24_)">
			<text transform="matrix(1 0 0 1 529.9017 609.2502)" fill="#545353" font-family="'ArialMT'" font-size="79.1581">s</text>
		</g>
	</g>
	<g>
		<defs>
			<rect id="SVGID_25_" x="-19.5" y="-152.3" width="1460.2" height="1460.2"/>
		</defs>
		<clipPath id="SVGID_26_">
			<use xlink:href="#SVGID_25_"  overflow="visible"/>
		</clipPath>
		<g clip-path="url(#SVGID_26_)">
			<text transform="matrix(1 0 0 1 564.6529 609.2502)" fill="#545353" font-family="'ArialMT'" font-size="79.1581">u</text>
		</g>
	</g>
	<g>
		<defs>
			<rect id="SVGID_27_" x="-19.5" y="-152.3" width="1460.2" height="1460.2"/>
		</defs>
		<clipPath id="SVGID_28_">
			<use xlink:href="#SVGID_27_"  overflow="visible"/>
		</clipPath>
		<g clip-path="url(#SVGID_28_)">
			<text transform="matrix(1 0 0 1 609.3774 609.2502)" fill="#545353" font-family="'ArialMT'" font-size="79.1581">s</text>
		</g>
	</g>
	<g>
		<defs>
			<rect id="SVGID_29_" x="-19.5" y="-152.3" width="1460.2" height="1460.2"/>
		</defs>
		<clipPath id="SVGID_30_">
			<use xlink:href="#SVGID_29_"  overflow="visible"/>
		</clipPath>
		<g clip-path="url(#SVGID_30_)">
			<text transform="matrix(1 0 0 1 644.1285 609.2502)" fill="#545353" font-family="'ArialMT'" font-size="79.1581">t</text>
		</g>
	</g>
	<g>
		<defs>
			<rect id="SVGID_31_" x="-19.5" y="-152.3" width="1460.2" height="1460.2"/>
		</defs>
		<clipPath id="SVGID_32_">
			<use xlink:href="#SVGID_31_"  overflow="visible"/>
		</clipPath>
		<g clip-path="url(#SVGID_32_)">
			<text transform="matrix(1 0 0 1 673.8945 609.2502)" fill="#545353" font-family="'ArialMT'" font-size="79.1581">e</text>
		</g>
	</g>
	<g>
		<defs>
			<rect id="SVGID_33_" x="-19.5" y="-152.3" width="1460.2" height="1460.2"/>
		</defs>
		<clipPath id="SVGID_34_">
			<use xlink:href="#SVGID_33_"  overflow="visible"/>
		</clipPath>
		<g clip-path="url(#SVGID_34_)">
			<text transform="matrix(1 0 0 1 714.58 609.2502)" fill="#545353" font-family="'ArialMT'" font-size="79.1581">n</text>
		</g>
	</g>
	<g>
		<defs>
			<rect id="SVGID_35_" x="-19.5" y="-152.3" width="1460.2" height="1460.2"/>
		</defs>
		<clipPath id="SVGID_36_">
			<use xlink:href="#SVGID_35_"  overflow="visible"/>
		</clipPath>
		<g clip-path="url(#SVGID_36_)">
			<text transform="matrix(1 0 0 1 759.5409 609.2502)" fill="#545353" font-family="'ArialMT'" font-size="79.1581">t</text>
		</g>
	</g>
	<g>
		<defs>
			<rect id="SVGID_37_" x="-19.5" y="-152.3" width="1460.2" height="1460.2"/>
		</defs>
		<clipPath id="SVGID_38_">
			<use xlink:href="#SVGID_37_"  overflow="visible"/>
		</clipPath>
		<g clip-path="url(#SVGID_38_)">
			<text transform="matrix(1 0 0 1 789.3074 609.2502)" fill="#545353" font-family="'ArialMT'" font-size="79.1581">รก</text>
		</g>
	</g>
	<g>
		<defs>
			<rect id="SVGID_39_" x="-19.5" y="-152.3" width="1460.2" height="1460.2"/>
		</defs>
		<clipPath id="SVGID_40_">
			<use xlink:href="#SVGID_39_"  overflow="visible"/>
		</clipPath>
		<g clip-path="url(#SVGID_40_)">
			<text transform="matrix(1 0 0 1 830.784 609.2502)" fill="#545353" font-family="'ArialMT'" font-size="79.1581">v</text>
		</g>
	</g>
	<g>
		<defs>
			<rect id="SVGID_41_" x="-19.5" y="-152.3" width="1460.2" height="1460.2"/>
		</defs>
		<clipPath id="SVGID_42_">
			<use xlink:href="#SVGID_41_"  overflow="visible"/>
		</clipPath>
		<g clip-path="url(#SVGID_42_)">
			<text transform="matrix(1 0 0 1 871.4706 609.2502)" fill="#545353" font-family="'ArialMT'" font-size="79.1581">e</text>
		</g>
	</g>
	<g>
		<defs>
			<rect id="SVGID_43_" x="-19.5" y="-152.3" width="1460.2" height="1460.2"/>
		</defs>
		<clipPath id="SVGID_44_">
			<use xlink:href="#SVGID_43_"  overflow="visible"/>
		</clipPath>
		<g clip-path="url(#SVGID_44_)">
			<text transform="matrix(1 0 0 1 912.1611 609.2502)" fill="#545353" font-family="'ArialMT'" font-size="79.1581">l</text>
		</g>
	</g>
	<g>
		<defs>
			<rect id="SVGID_45_" x="-19.5" y="-152.3" width="1460.2" height="1460.2"/>
		</defs>
		<clipPath id="SVGID_46_">
			<use xlink:href="#SVGID_45_"  overflow="visible"/>
		</clipPath>
		<g clip-path="url(#SVGID_46_)">
			<text transform="matrix(1 0 0 1 934.4024 609.2502)" fill="#545353" font-family="'ArialMT'" font-size="79.1581"> </text>
		</g>
	</g>
	<g>
		<defs>
			<rect id="SVGID_47_" x="-19.5" y="-152.3" width="1460.2" height="1460.2"/>
		</defs>
		<clipPath id="SVGID_48_">
			<use xlink:href="#SVGID_47_"  overflow="visible"/>
		</clipPath>
		<g clip-path="url(#SVGID_48_)">
			<text transform="matrix(1 0 0 1 950.2354 609.2502)" fill="#545353" font-family="'ArialMT'" font-size="79.1581">s</text>
		</g>
	</g>
	<g>
		<defs>
			<rect id="SVGID_49_" x="-19.5" y="-152.3" width="1460.2" height="1460.2"/>
		</defs>
		<clipPath id="SVGID_50_">
			<use xlink:href="#SVGID_49_"  overflow="visible"/>
		</clipPath>
		<g clip-path="url(#SVGID_50_)">
			<text transform="matrix(1 0 0 1 984.986 609.2502)" fill="#545353" font-family="'ArialMT'" font-size="79.1581">e</text>
		</g>
	</g>
	<g>
		<defs>
			<rect id="SVGID_51_" x="-19.5" y="-152.3" width="1460.2" height="1460.2"/>
		</defs>
		<clipPath id="SVGID_52_">
			<use xlink:href="#SVGID_51_"  overflow="visible"/>
		</clipPath>
		<g clip-path="url(#SVGID_52_)">
			<text transform="matrix(1 0 0 1 1025.6736 609.2502)" fill="#545353" font-family="'ArialMT'" font-size="79.1581"> </text>
		</g>
	</g>
	<g>
		<defs>
			<rect id="SVGID_53_" x="-19.5" y="-152.3" width="1460.2" height="1460.2"/>
		</defs>
		<clipPath id="SVGID_54_">
			<use xlink:href="#SVGID_53_"  overflow="visible"/>
		</clipPath>
		<g clip-path="url(#SVGID_54_)">
			<text transform="matrix(1 0 0 1 1041.5026 609.2502)" fill="#545353" font-family="'ArialMT'" font-size="79.1581">c</text>
		</g>
	</g>
	<g>
		<defs>
			<rect id="SVGID_55_" x="-19.5" y="-152.3" width="1460.2" height="1460.2"/>
		</defs>
		<clipPath id="SVGID_56_">
			<use xlink:href="#SVGID_55_"  overflow="visible"/>
		</clipPath>
		<g clip-path="url(#SVGID_56_)">
			<text transform="matrix(1 0 0 1 1078.3906 609.2502)" fill="#545353" font-family="'ArialMT'" font-size="79.1581">r</text>
		</g>
	</g>
	<g>
		<defs>
			<rect id="SVGID_57_" x="-19.5" y="-152.3" width="1460.2" height="1460.2"/>
		</defs>
		<clipPath id="SVGID_58_">
			<use xlink:href="#SVGID_57_"  overflow="visible"/>
		</clipPath>
		<g clip-path="url(#SVGID_58_)">
			<text transform="matrix(1 0 0 1 1109.2654 609.2502)" fill="#545353" font-family="'ArialMT'" font-size="79.1581">i</text>
		</g>
	</g>
	<g>
		<defs>
			<rect id="SVGID_59_" x="-19.5" y="-152.3" width="1460.2" height="1460.2"/>
		</defs>
		<clipPath id="SVGID_60_">
			<use xlink:href="#SVGID_59_"  overflow="visible"/>
		</clipPath>
		<g clip-path="url(#SVGID_60_)">
			<text transform="matrix(1 0 0 1 1130.7928 609.2502)" fill="#545353" font-family="'ArialMT'" font-size="79.1581">a</text>
		</g>
	</g>
</g>
<g>
	<g>
		<defs>
			<rect id="SVGID_61_" x="1207.3" y="595.2" width="192.7" height="113.9"/>
		</defs>
		<clipPath id="SVGID_62_">
			<use xlink:href="#SVGID_61_"  overflow="visible"/>
		</clipPath>
		<path clip-path="url(#SVGID_62_)" fill="#43D539" d="M1293.8,635C1293.8,635,1293.8,635.1,1293.8,635l4.3,2.6
			c-1.3-18.1-13.2-33.7-30.4-39.9c-17.1-6.2-36.9-0.8-49,12.5c-12.3,13.6-14.8,33.4-7,49.8c7.8,16.4,25.7,26.3,43.8,25.3
			c1.9-0.1,3.8-0.4,5.7-0.7c-1.2-0.7-2.4-1.4-3.6-2c2.1,8.1-1.7,15.6-7.1,21.5c-2.3,2.5,0.6,6,3.6,4.6c15.3-7.5,28.8-18.7,36.7-33.8
			c4.9-9.4,7.6-20,7.7-30.5c0-2.5-0.1-5.1-0.5-7.6c-0.6-3.7-6.3-2.1-5.7,1.5c0,0.3,0.1,0.8-0.1-0.4c0,0.3,0.1,0.6,0.1,1
			c0.1,1.1,0.2,2.3,0.2,3.4c0,1.7,0,3.5-0.1,5.2c-0.1,2.5-0.4,4.1-0.7,6.2c-2.1,12.5-8,24-16.9,33.3c-6.8,7.1-15,12.5-23.8,16.8
			c1.2,1.5,2.4,3.1,3.6,4.6c6.9-7.5,11.2-17,8.6-27.2c-0.4-1.6-2.1-2.3-3.6-2c-18,3.2-35.8-6.4-43.4-22.8
			c-7.4-15.9-2.3-34.9,10.9-46.1c11.2-9.5,27.7-11.7,41.1-5.9c13.5,5.8,22.8,18.8,23.9,33.4c0.1,1.9,2.5,4,4.4,2.5
			c0,0,0.1-0.1,0.1-0.1c1.3-1,1.9-2.5,1.1-4C1297.1,634.8,1295.1,634.1,1293.8,635"/>
	</g>
	<g>
		<defs>
			<rect id="SVGID_63_" x="1207.3" y="595.2" width="192.7" height="113.9"/>
		</defs>
		<clipPath id="SVGID_64_">
			<use xlink:href="#SVGID_63_"  overflow="visible"/>
		</clipPath>
		<path clip-path="url(#SVGID_64_)" fill="#43D539" d="M1395.3,635C1395.2,635,1395.2,635.1,1395.3,635l4.3,2.6
			c-1.3-18.1-13.2-33.7-30.4-39.9c-17.1-6.2-36.9-0.8-49,12.5c-12.3,13.6-14.8,33.4-7,49.8c7.8,16.4,25.7,26.3,43.8,25.3
			c1.9-0.1,3.8-0.4,5.7-0.7c-1.2-0.7-2.4-1.4-3.6-2c2.1,8.1-1.7,15.6-7.1,21.5c-2.3,2.5,0.6,6,3.6,4.6c15.3-7.5,28.8-18.7,36.7-33.8
			c4.9-9.4,7.6-20,7.7-30.5c0-2.5-0.1-5.1-0.5-7.6c-0.6-3.7-6.3-2.1-5.7,1.5c0,0.3,0.1,0.8-0.1-0.4c0,0.3,0.1,0.6,0.1,1
			c0.1,1.1,0.2,2.3,0.2,3.4c0,1.7,0,3.5-0.1,5.2c-0.1,2.5-0.4,4.1-0.7,6.2c-2.1,12.5-8,24-16.9,33.3c-6.8,7.1-15,12.5-23.8,16.8
			c1.2,1.5,2.4,3.1,3.6,4.6c6.9-7.5,11.2-17,8.6-27.2c-0.4-1.6-2.1-2.3-3.6-2c-18,3.2-35.8-6.4-43.4-22.8
			c-7.4-15.9-2.3-34.9,10.9-46.1c11.2-9.5,27.7-11.7,41.1-5.9c13.5,5.8,22.8,18.8,23.9,33.4c0.1,1.9,2.5,4,4.4,2.5
			c0,0,0.1-0.1,0.1-0.1c1.3-1,1.9-2.5,1.1-4C1398.5,634.8,1396.5,634.1,1395.3,635"/>
	</g>
</g>
<g>
	<g>
		<defs>
			<rect id="SVGID_65_" x="-19.5" y="-152.3" width="1460.2" height="1460.2"/>
		</defs>
		<clipPath id="SVGID_66_">
			<use xlink:href="#SVGID_65_"  overflow="visible"/>
		</clipPath>
		<g clip-path="url(#SVGID_66_)">
			<text transform="matrix(1 0 0 1 175.4571 691.3351)" fill="#A6A6A6" font-family="'ArialMT'" font-size="57.7994">A</text>
		</g>
	</g>
	<g>
		<defs>
			<rect id="SVGID_67_" x="-19.5" y="-152.3" width="1460.2" height="1460.2"/>
		</defs>
		<clipPath id="SVGID_68_">
			<use xlink:href="#SVGID_67_"  overflow="visible"/>
		</clipPath>
		<g clip-path="url(#SVGID_68_)">
			<text transform="matrix(1 0 0 1 213.4325 691.3351)" fill="#A6A6A6" font-family="'ArialMT'" font-size="57.7994"> </text>
		</g>
	</g>
	<g>
		<defs>
			<rect id="SVGID_69_" x="-19.5" y="-152.3" width="1460.2" height="1460.2"/>
		</defs>
		<clipPath id="SVGID_70_">
			<use xlink:href="#SVGID_69_"  overflow="visible"/>
		</clipPath>
		<g clip-path="url(#SVGID_70_)">
			<text transform="matrix(1 0 0 1 231.8115 691.3351)" fill="#A6A6A6" font-family="'ArialMT'" font-size="57.7994">s</text>
		</g>
	</g>
	<g>
		<defs>
			<rect id="SVGID_71_" x="-19.5" y="-152.3" width="1460.2" height="1460.2"/>
		</defs>
		<clipPath id="SVGID_72_">
			<use xlink:href="#SVGID_71_"  overflow="visible"/>
		</clipPath>
		<g clip-path="url(#SVGID_72_)">
			<text transform="matrix(1 0 0 1 262.6763 691.3351)" fill="#A6A6A6" font-family="'ArialMT'" font-size="57.7994">u</text>
		</g>
	</g>
	<g>
		<defs>
			<rect id="SVGID_73_" x="-19.5" y="-152.3" width="1460.2" height="1460.2"/>
		</defs>
		<clipPath id="SVGID_74_">
			<use xlink:href="#SVGID_73_"  overflow="visible"/>
		</clipPath>
		<g clip-path="url(#SVGID_74_)">
			<text transform="matrix(1 0 0 1 300.7084 691.3351)" fill="#A6A6A6" font-family="'ArialMT'" font-size="57.7994">s</text>
		</g>
	</g>
	<g>
		<defs>
			<rect id="SVGID_75_" x="-19.5" y="-152.3" width="1460.2" height="1460.2"/>
		</defs>
		<clipPath id="SVGID_76_">
			<use xlink:href="#SVGID_75_"  overflow="visible"/>
		</clipPath>
		<g clip-path="url(#SVGID_76_)">
			<text transform="matrix(1 0 0 1 331.5752 691.3351)" fill="#A6A6A6" font-family="'ArialMT'" font-size="57.7994">t</text>
		</g>
	</g>
	<g>
		<defs>
			<rect id="SVGID_77_" x="-19.5" y="-152.3" width="1460.2" height="1460.2"/>
		</defs>
		<clipPath id="SVGID_78_">
			<use xlink:href="#SVGID_77_"  overflow="visible"/>
		</clipPath>
		<g clip-path="url(#SVGID_78_)">
			<text transform="matrix(1 0 0 1 357.5256 691.3351)" fill="#A6A6A6" font-family="'ArialMT'" font-size="57.7994">a</text>
		</g>
	</g>
	<g>
		<defs>
			<rect id="SVGID_79_" x="-19.5" y="-152.3" width="1460.2" height="1460.2"/>
		</defs>
		<clipPath id="SVGID_80_">
			<use xlink:href="#SVGID_79_"  overflow="visible"/>
		</clipPath>
		<g clip-path="url(#SVGID_80_)">
			<text transform="matrix(1 0 0 1 393.3047 691.3351)" fill="#A6A6A6" font-family="'ArialMT'" font-size="57.7994">i</text>
		</g>
	</g>
	<g>
		<defs>
			<rect id="SVGID_81_" x="-19.5" y="-152.3" width="1460.2" height="1460.2"/>
		</defs>
		<clipPath id="SVGID_82_">
			<use xlink:href="#SVGID_81_"  overflow="visible"/>
		</clipPath>
		<g clip-path="url(#SVGID_82_)">
			<text transform="matrix(1 0 0 1 414.1118 691.3351)" fill="#A6A6A6" font-family="'ArialMT'" font-size="57.7994">n</text>
		</g>
	</g>
	<g>
		<defs>
			<rect id="SVGID_83_" x="-19.5" y="-152.3" width="1460.2" height="1460.2"/>
		</defs>
		<clipPath id="SVGID_84_">
			<use xlink:href="#SVGID_83_"  overflow="visible"/>
		</clipPath>
		<g clip-path="url(#SVGID_84_)">
			<text transform="matrix(1 0 0 1 452.3176 691.3351)" fill="#A6A6A6" font-family="'ArialMT'" font-size="57.7994">a</text>
		</g>
	</g>
	<g>
		<defs>
			<rect id="SVGID_85_" x="-19.5" y="-152.3" width="1460.2" height="1460.2"/>
		</defs>
		<clipPath id="SVGID_86_">
			<use xlink:href="#SVGID_85_"  overflow="visible"/>
		</clipPath>
		<g clip-path="url(#SVGID_86_)">
			<text transform="matrix(1 0 0 1 488.0948 691.3351)" fill="#A6A6A6" font-family="'ArialMT'" font-size="57.7994">b</text>
		</g>
	</g>
	<g>
		<defs>
			<rect id="SVGID_87_" x="-19.5" y="-152.3" width="1460.2" height="1460.2"/>
		</defs>
		<clipPath id="SVGID_88_">
			<use xlink:href="#SVGID_87_"  overflow="visible"/>
		</clipPath>
		<g clip-path="url(#SVGID_88_)">
			<text transform="matrix(1 0 0 1 526.7624 691.3351)" fill="#A6A6A6" font-family="'ArialMT'" font-size="57.7994">l</text>
		</g>
	</g>
	<g>
		<defs>
			<rect id="SVGID_89_" x="-19.5" y="-152.3" width="1460.2" height="1460.2"/>
		</defs>
		<clipPath id="SVGID_90_">
			<use xlink:href="#SVGID_89_"  overflow="visible"/>
		</clipPath>
		<g clip-path="url(#SVGID_90_)">
			<text transform="matrix(1 0 0 1 548.0333 691.3351)" fill="#A6A6A6" font-family="'ArialMT'" font-size="57.7994">e</text>
		</g>
	</g>
	<g>
		<defs>
			<rect id="SVGID_91_" x="-19.5" y="-152.3" width="1460.2" height="1460.2"/>
		</defs>
		<clipPath id="SVGID_92_">
			<use xlink:href="#SVGID_91_"  overflow="visible"/>
		</clipPath>
		<g clip-path="url(#SVGID_92_)">
			<text transform="matrix(1 0 0 1 583.2899 691.3351)" fill="#A6A6A6" font-family="'ArialMT'" font-size="57.7994"> </text>
		</g>
	</g>
	<g>
		<defs>
			<rect id="SVGID_93_" x="-19.5" y="-152.3" width="1460.2" height="1460.2"/>
		</defs>
		<clipPath id="SVGID_94_">
			<use xlink:href="#SVGID_93_"  overflow="visible"/>
		</clipPath>
		<g clip-path="url(#SVGID_94_)">
			<text transform="matrix(1 0 0 1 601.671 691.3351)" fill="#A6A6A6" font-family="'ArialMT'" font-size="57.7994">f</text>
		</g>
	</g>
	<g>
		<defs>
			<rect id="SVGID_95_" x="-19.5" y="-152.3" width="1460.2" height="1460.2"/>
		</defs>
		<clipPath id="SVGID_96_">
			<use xlink:href="#SVGID_95_"  overflow="visible"/>
		</clipPath>
		<g clip-path="url(#SVGID_96_)">
			<text transform="matrix(1 0 0 1 624.9061 691.3351)" fill="#A6A6A6" font-family="'ArialMT'" font-size="57.7994">u</text>
		</g>
	</g>
	<g>
		<defs>
			<rect id="SVGID_97_" x="-19.5" y="-152.3" width="1460.2" height="1460.2"/>
		</defs>
		<clipPath id="SVGID_98_">
			<use xlink:href="#SVGID_97_"  overflow="visible"/>
		</clipPath>
		<g clip-path="url(#SVGID_98_)">
			<text transform="matrix(1 0 0 1 662.9387 691.3351)" fill="#A6A6A6" font-family="'ArialMT'" font-size="57.7994">t</text>
		</g>
	</g>
	<g>
		<defs>
			<rect id="SVGID_99_" x="-19.5" y="-152.3" width="1460.2" height="1460.2"/>
		</defs>
		<clipPath id="SVGID_100_">
			<use xlink:href="#SVGID_99_"  overflow="visible"/>
		</clipPath>
		<g clip-path="url(#SVGID_100_)">
			<text transform="matrix(1 0 0 1 688.8901 691.3351)" fill="#A6A6A6" font-family="'ArialMT'" font-size="57.7994">u</text>
		</g>
	</g>
	<g>
		<defs>
			<rect id="SVGID_101_" x="-19.5" y="-152.3" width="1460.2" height="1460.2"/>
		</defs>
		<clipPath id="SVGID_102_">
			<use xlink:href="#SVGID_101_"  overflow="visible"/>
		</clipPath>
		<g clip-path="url(#SVGID_102_)">
			<text transform="matrix(1 0 0 1 726.9237 691.3351)" fill="#A6A6A6" font-family="'ArialMT'" font-size="57.7994">r</text>
		</g>
	</g>
	<g>
		<defs>
			<rect id="SVGID_103_" x="-19.5" y="-152.3" width="1460.2" height="1460.2"/>
		</defs>
		<clipPath id="SVGID_104_">
			<use xlink:href="#SVGID_103_"  overflow="visible"/>
		</clipPath>
		<g clip-path="url(#SVGID_104_)">
			<text transform="matrix(1 0 0 1 753.3962 691.3351)" fill="#A6A6A6" font-family="'ArialMT'" font-size="57.7994">e</text>
		</g>
	</g>
	<g>
		<defs>
			<rect id="SVGID_105_" x="-19.5" y="-152.3" width="1460.2" height="1460.2"/>
		</defs>
		<clipPath id="SVGID_106_">
			<use xlink:href="#SVGID_105_"  overflow="visible"/>
		</clipPath>
		<g clip-path="url(#SVGID_106_)">
			<text transform="matrix(1 0 0 1 788.6523 691.3351)" fill="#A6A6A6" font-family="'ArialMT'" font-size="57.7994"> </text>
		</g>
	</g>
	<g>
		<defs>
			<rect id="SVGID_107_" x="-19.5" y="-152.3" width="1460.2" height="1460.2"/>
		</defs>
		<clipPath id="SVGID_108_">
			<use xlink:href="#SVGID_107_"  overflow="visible"/>
		</clipPath>
		<g clip-path="url(#SVGID_108_)">
			<text transform="matrix(1 0 0 1 807.0348 691.3351)" fill="#A6A6A6" font-family="'ArialMT'" font-size="57.7994">i</text>
		</g>
	</g>
	<g>
		<defs>
			<rect id="SVGID_109_" x="-19.5" y="-152.3" width="1460.2" height="1460.2"/>
		</defs>
		<clipPath id="SVGID_110_">
			<use xlink:href="#SVGID_109_"  overflow="visible"/>
		</clipPath>
		<g clip-path="url(#SVGID_110_)">
			<text transform="matrix(1 0 0 1 827.8414 691.3351)" fill="#A6A6A6" font-family="'ArialMT'" font-size="57.7994">s</text>
		</g>
	</g>
	<g>
		<defs>
			<rect id="SVGID_111_" x="-19.5" y="-152.3" width="1460.2" height="1460.2"/>
		</defs>
		<clipPath id="SVGID_112_">
			<use xlink:href="#SVGID_111_"  overflow="visible"/>
		</clipPath>
		<g clip-path="url(#SVGID_112_)">
			<text transform="matrix(1 0 0 1 858.7067 691.3351)" fill="#A6A6A6" font-family="'ArialMT'" font-size="57.7994"> </text>
		</g>
	</g>
	<g>
		<defs>
			<rect id="SVGID_113_" x="-19.5" y="-152.3" width="1460.2" height="1460.2"/>
		</defs>
		<clipPath id="SVGID_114_">
			<use xlink:href="#SVGID_113_"  overflow="visible"/>
		</clipPath>
		<g clip-path="url(#SVGID_114_)">
			<text transform="matrix(1 0 0 1 877.0877 691.3351)" fill="#A6A6A6" font-family="'ArialMT'" font-size="57.7994">c</text>
		</g>
	</g>
	<g>
		<defs>
			<rect id="SVGID_115_" x="-19.5" y="-152.3" width="1460.2" height="1460.2"/>
		</defs>
		<clipPath id="SVGID_116_">
			<use xlink:href="#SVGID_115_"  overflow="visible"/>
		</clipPath>
		<g clip-path="url(#SVGID_116_)">
			<text transform="matrix(1 0 0 1 910.1462 691.3351)" fill="#A6A6A6" font-family="'ArialMT'" font-size="57.7994">r</text>
		</g>
	</g>
	<g>
		<defs>
			<rect id="SVGID_117_" x="-19.5" y="-152.3" width="1460.2" height="1460.2"/>
		</defs>
		<clipPath id="SVGID_118_">
			<use xlink:href="#SVGID_117_"  overflow="visible"/>
		</clipPath>
		<g clip-path="url(#SVGID_118_)">
			<text transform="matrix(1 0 0 1 936.6191 691.3351)" fill="#A6A6A6" font-family="'ArialMT'" font-size="57.7994">e</text>
		</g>
	</g>
	<g>
		<defs>
			<rect id="SVGID_119_" x="-19.5" y="-152.3" width="1460.2" height="1460.2"/>
		</defs>
		<clipPath id="SVGID_120_">
			<use xlink:href="#SVGID_119_"  overflow="visible"/>
		</clipPath>
		<g clip-path="url(#SVGID_120_)">
			<text transform="matrix(1 0 0 1 971.8748 691.3351)" fill="#A6A6A6" font-family="'ArialMT'" font-size="57.7994">a</text>
		</g>
	</g>
	<g>
		<defs>
			<rect id="SVGID_121_" x="-19.5" y="-152.3" width="1460.2" height="1460.2"/>
		</defs>
		<clipPath id="SVGID_122_">
			<use xlink:href="#SVGID_121_"  overflow="visible"/>
		</clipPath>
		<g clip-path="url(#SVGID_122_)">
			<text transform="matrix(1 0 0 1 1007.657 691.3351)" fill="#A6A6A6" font-family="'ArialMT'" font-size="57.7994">t</text>
		</g>
	</g>
	<g>
		<defs>
			<rect id="SVGID_123_" x="-19.5" y="-152.3" width="1460.2" height="1460.2"/>
		</defs>
		<clipPath id="SVGID_124_">
			<use xlink:href="#SVGID_123_"  overflow="visible"/>
		</clipPath>
		<g clip-path="url(#SVGID_124_)">
			<text transform="matrix(1 0 0 1 1033.6053 691.3351)" fill="#A6A6A6" font-family="'ArialMT'" font-size="57.7994">e</text>
		</g>
	</g>
	<g>
		<defs>
			<rect id="SVGID_125_" x="-19.5" y="-152.3" width="1460.2" height="1460.2"/>
		</defs>
		<clipPath id="SVGID_126_">
			<use xlink:href="#SVGID_125_"  overflow="visible"/>
		</clipPath>
		<g clip-path="url(#SVGID_126_)">
			<text transform="matrix(1 0 0 1 1068.865 691.3351)" fill="#A6A6A6" font-family="'ArialMT'" font-size="57.7994">d</text>
		</g>
	</g>
</g>
</svg>
