<?xml version="1.0" encoding="utf-8"?>
<!-- Generator: Adobe Illustrator 24.2.0, SVG Export Plug-In . SVG Version: 6.00 Build 0)  -->
<svg version="1.1" id="Camada_1" xmlns="http://www.w3.org/2000/svg" xmlns:xlink="http://www.w3.org/1999/xlink" x="0px" y="0px"
	 viewBox="0 0 92 377.36" style="enable-background:new 0 0 92 377.36;" xml:space="preserve">
<style type="text/css">
	.st0{fill:#41D537;}
</style>
<g id="XMLID_7_">
	<g>
		<g id="XMLID_394_">
			<g>
				<path id="XMLID_395_" class="st0" d="M66.29,313.66c-5.27-5.28-12.3-8.19-19.76-8.19c-7.46,0-14.49,2.91-19.76,8.19
					c-5.27,5.28-8.19,12.3-8.19,19.76c0,7.46,2.91,14.49,8.19,19.76c5.28,5.27,12.3,8.19,19.76,8.19c7.46,0,14.49-2.91,19.76-8.19
					c5.27-5.28,8.19-12.3,8.19-19.76C74.48,325.96,71.57,318.93,66.29,313.66L66.29,313.66z M71.95,332.16H61.11
					c-0.1-4.31-0.71-8.46-1.77-12.15c2.06-1.06,3.99-2.39,5.76-3.97C69.1,320.31,71.64,325.95,71.95,332.16L71.95,332.16z
					 M47.79,334.67h10.82c-0.09,3.97-0.64,7.77-1.59,11.17c-2.92-1.17-6.03-1.86-9.24-2.01V334.67z M63.3,314.3
					c-1.46,1.29-3.06,2.38-4.74,3.3c-0.43-1.21-0.92-2.35-1.47-3.42c-1.08-2.14-2.32-3.9-3.67-5.25
					C57.12,309.96,60.48,311.82,63.3,314.3L63.3,314.3z M47.79,308.37c2.61,0.58,5.08,2.99,7.06,6.91c0.54,1.06,1.01,2.19,1.44,3.39
					c-2.68,1.11-5.54,1.76-8.5,1.9V308.37z M57.04,321.07c0.94,3.38,1.47,7.15,1.56,11.1H47.79v-9.08
					C51.01,322.94,54.12,322.25,57.04,321.07L57.04,321.07z M45.28,332.16H34.45c0.09-3.95,0.63-7.72,1.56-11.1
					c2.92,1.19,6.05,1.87,9.25,2.01v9.09H45.28z M45.29,308.37v12.2c-2.95-0.15-5.83-0.8-8.5-1.9c0.42-1.2,0.9-2.33,1.44-3.39
					C40.21,311.36,42.68,308.95,45.29,308.37L45.29,308.37z M39.67,308.93c-1.36,1.35-2.59,3.11-3.67,5.25
					c-0.54,1.07-1.03,2.21-1.47,3.42c-1.69-0.91-3.27-2.01-4.75-3.3C32.6,311.82,35.96,309.96,39.67,308.93L39.67,308.93z
					 M27.98,316.04c1.77,1.57,3.7,2.9,5.76,3.97c-1.06,3.7-1.68,7.84-1.77,12.15H21.13C21.44,325.95,23.98,320.31,27.98,316.04
					L27.98,316.04z M21.13,334.67h10.84c0.1,4.35,0.72,8.51,1.79,12.22c-2.05,1.06-3.98,2.37-5.74,3.95
					C24,346.56,21.44,340.91,21.13,334.67L21.13,334.67z M29.82,352.58c1.46-1.28,3.05-2.37,4.72-3.27c0.43,1.17,0.91,2.3,1.45,3.35
					c1.08,2.14,2.32,3.9,3.67,5.26C35.98,356.88,32.63,355.03,29.82,352.58L29.82,352.58z M45.29,358.46
					c-2.61-0.58-5.08-2.99-7.06-6.91c-0.52-1.04-0.99-2.14-1.41-3.32c2.67-1.11,5.53-1.76,8.47-1.89V358.46z M36.05,345.84
					c-0.95-3.4-1.49-7.2-1.59-11.17h10.82v9.16C42.09,343.97,38.97,344.65,36.05,345.84L36.05,345.84z M47.8,358.46v-12.12
					c2.94,0.15,5.8,0.79,8.47,1.89c-0.42,1.18-0.89,2.28-1.41,3.32C52.88,355.48,50.41,357.88,47.8,358.46L47.8,358.46z
					 M53.42,357.91c1.36-1.35,2.59-3.11,3.67-5.26c0.54-1.05,1.01-2.18,1.45-3.35c1.68,0.9,3.26,2,4.72,3.27
					C60.46,355.03,57.11,356.88,53.42,357.91L53.42,357.91z M65.08,350.83c-1.76-1.56-3.68-2.89-5.74-3.95
					c1.07-3.71,1.69-7.88,1.79-12.22h10.84C71.65,340.91,69.1,346.56,65.08,350.83L65.08,350.83z M65.08,350.83"/>
			</g>
		</g>
		<g id="XMLID_386_">
			<g>
				<path id="XMLID_387_" class="st0" d="M16.26,224.44v40.08h60.47v-40.08H16.26z M46.5,249.19l-24.8-21.78h49.6L46.5,249.19z
					 M36.62,244.47l-17.38,15.26V229.2L36.62,244.47z M38.87,246.45l7.63,6.7l7.62-6.7l17.19,15.1H21.68L38.87,246.45z
					 M56.38,244.47l17.38-15.27v30.53L56.38,244.47z M56.38,244.47"/>
			</g>
		</g>
		<g id="XMLID_380_">
			<g>
				<path class="st0" d="M59.07,121.69H34c-2.4,0-4.33,1.95-4.33,4.34v50.91c0,2.4,1.93,4.34,4.33,4.34h25.06
					c2.4,0,4.33-1.94,4.33-4.34v-50.91C63.4,123.64,61.46,121.69,59.07,121.69L59.07,121.69z M40.35,124.33h12.37
					c0.31,0,0.56,0.47,0.56,1.04c0,0.58-0.25,1.05-0.56,1.05H40.35c-0.32,0-0.57-0.47-0.57-1.05
					C39.78,124.8,40.04,124.33,40.35,124.33L40.35,124.33z M46.54,176.99c-1.53,0-2.77-1.24-2.77-2.77c0-1.53,1.24-2.77,2.77-2.77
					c1.53,0,2.77,1.24,2.77,2.77C49.3,175.75,48.06,176.99,46.54,176.99L46.54,176.99z M60.16,167.5H32.91v-38.48h27.25V167.5z
					 M60.16,167.5"/>
			</g>
		</g>
		<g id="XMLID_371_">
			<g>
				<path id="XMLID_376_" class="st0" d="M47.79,16.36c-13.32,0-24.16,10.84-24.16,24.16c0,1.52,0.14,3.04,0.43,4.54
					c0.01,0.09,0.06,0.35,0.17,0.81c0.37,1.63,0.91,3.23,1.62,4.76c2.6,6.13,8.32,15.54,20.88,25.62c0.32,0.25,0.69,0.38,1.07,0.38
					c0.38,0,0.76-0.13,1.07-0.38c12.55-10.08,18.28-19.49,20.89-25.62c0.71-1.53,1.25-3.12,1.62-4.76c0.1-0.45,0.15-0.72,0.16-0.81
					c0.28-1.49,0.43-3.02,0.43-4.54C71.95,27.2,61.1,16.36,47.79,16.36L47.79,16.36z M68.15,44.46c0,0.02-0.01,0.05-0.01,0.08
					c-0.01,0.06-0.05,0.25-0.11,0.54v0.03c-0.32,1.42-0.78,2.79-1.4,4.12c-0.01,0.01-0.01,0.04-0.03,0.05
					c-2.36,5.6-7.54,14.14-18.81,23.45c-11.27-9.31-16.45-17.85-18.81-23.45c-0.01-0.01-0.01-0.04-0.03-0.05
					c-0.61-1.31-1.07-2.7-1.4-4.12v-0.03c-0.08-0.29-0.1-0.48-0.11-0.54c0-0.03-0.01-0.05-0.01-0.09c-0.25-1.3-0.38-2.61-0.38-3.94
					c0-11.43,9.31-20.75,20.75-20.75c11.44,0,20.75,9.31,20.75,20.75C68.53,41.85,68.41,43.17,68.15,44.46L68.15,44.46z
					 M68.15,44.46"/>
				<path id="XMLID_372_" class="st0" d="M47.79,25.45c-8.45,0-15.34,6.89-15.34,15.34c0,8.45,6.89,15.34,15.34,15.34
					s15.34-6.89,15.34-15.34C63.13,32.33,56.24,25.45,47.79,25.45L47.79,25.45z M47.79,52.71c-6.58,0-11.93-5.36-11.93-11.93
					c0-6.57,5.36-11.93,11.93-11.93c6.57,0,11.93,5.36,11.93,11.93C59.71,47.36,54.37,52.71,47.79,52.71L47.79,52.71z M47.79,52.71"
					/>
			</g>
		</g>
	</g>
</g>
</svg>
