<?xml version="1.0" encoding="utf-8"?>
<!-- Generator: Adobe Illustrator 18.1.1, SVG Export Plug-In . SVG Version: 6.00 Build 0)  -->
<svg version="1.1" id="Camada_1" xmlns="http://www.w3.org/2000/svg" xmlns:xlink="http://www.w3.org/1999/xlink" x="0px" y="0px"
	 viewBox="147 83.9 408 960" enable-background="new 147 83.9 408 960" xml:space="preserve">
<g>
	<g>
		<a href="https://instagram.com/neocert_oficial">
			<defs>
				<rect id="SVGID_1_" x="158.6" y="7.7" width="1124.6" height="1124.8"/>
			</defs>
			<clipPath id="SVGID_2_">
				<use xlink:href="#SVGID_1_"  overflow="visible"/>
			</clipPath>
			<path clip-path="url(#SVGID_2_)"  fill="#43D539" d="M679.8,141.8c0,17.6-14.3,31.9-31.9,31.9s-31.9-14.3-31.9-31.9
				s14.3-31.9,31.9-31.9S679.8,124.2,679.8,141.8"/>
		</a>
	</g>
	<g>
		<defs>
			<rect id="SVGID_3_" x="158.6" y="7.7" width="1124.6" height="1124.8"/>
		</defs>
		<clipPath id="SVGID_4_">
			<use xlink:href="#SVGID_3_"  overflow="visible"/>
		</clipPath>
		<path clip-path="url(#SVGID_4_)" fill="#43D539" d="M408.5,368.3c0,17.6-14.3,31.9-31.9,31.9c-17.6,0-31.9-14.3-31.9-31.9
			c0-17.6,14.3-31.9,31.9-31.9C394.2,336.4,408.5,350.7,408.5,368.3"/>
	</g>
	<g>
		<defs>
			<rect id="SVGID_5_" x="158.6" y="7.7" width="1124.6" height="1124.8"/>
		</defs>
		<clipPath id="SVGID_6_">
			<use xlink:href="#SVGID_5_"  overflow="visible"/>
		</clipPath>
		<path clip-path="url(#SVGID_6_)" fill="#43D539" d="M1022,214.9c0,17.6-14.3,31.9-31.9,31.9c-17.6,0-31.9-14.3-31.9-31.9
			c0-17.6,14.3-31.9,31.9-31.9C1007.7,183.1,1022,197.3,1022,214.9"/>
	</g>
	<g>
		<defs>
			<rect id="SVGID_7_" x="158.6" y="7.7" width="1124.6" height="1124.8"/>
		</defs>
		<clipPath id="SVGID_8_">
			<use xlink:href="#SVGID_7_"  overflow="visible"/>
		</clipPath>
		<path clip-path="url(#SVGID_8_)" fill="#43D539" d="M774.2,391.9c0,17.6-14.3,31.9-31.9,31.9c-17.6,0-31.9-14.3-31.9-31.9
			c0-17.6,14.3-31.9,31.9-31.9C760,360,774.2,374.3,774.2,391.9"/>
	</g>
	<g>
		<defs>
			<rect id="SVGID_9_" x="158.6" y="7.7" width="1124.6" height="1124.8"/>
		</defs>
		<clipPath id="SVGID_10_">
			<use xlink:href="#SVGID_9_"  overflow="visible"/>
		</clipPath>
		<path clip-path="url(#SVGID_10_)" fill="#43D539" d="M847,118.2c0,12.2-9.9,22.1-22.1,22.1s-22.1-9.9-22.1-22.1
			c0-12.2,9.9-22.1,22.1-22.1C837.1,96.1,847,106,847,118.2"/>
	</g>
	<g>
		<defs>
			<rect id="SVGID_11_" x="158.6" y="7.7" width="1124.6" height="1124.8"/>
		</defs>
		<clipPath id="SVGID_12_">
			<use xlink:href="#SVGID_11_"  overflow="visible"/>
		</clipPath>
		<path clip-path="url(#SVGID_12_)" fill="#43D539" d="M953.2,342.3c0,12.2-9.9,22.1-22.1,22.1c-12.2,0-22.1-9.9-22.1-22.1
			s9.9-22.1,22.1-22.1C943.3,320.2,953.2,330.1,953.2,342.3"/>
	</g>
	<g>
		<defs>
			<rect id="SVGID_13_" x="158.6" y="7.7" width="1124.6" height="1124.8"/>
		</defs>
		<clipPath id="SVGID_14_">
			<use xlink:href="#SVGID_13_"  overflow="visible"/>
		</clipPath>
		<path clip-path="url(#SVGID_14_)" fill="#43D539" d="M814,248c0,12.2-9.9,22.1-22.1,22.1c-12.2,0-22.1-9.9-22.1-22.1
			c0-12.2,9.9-22.1,22.1-22.1C804.1,225.9,814,235.8,814,248"/>
	</g>
	<g>
		<defs>
			<rect id="SVGID_15_" x="158.6" y="7.7" width="1124.6" height="1124.8"/>
		</defs>
		<clipPath id="SVGID_16_">
			<use xlink:href="#SVGID_15_"  overflow="visible"/>
		</clipPath>
		<path clip-path="url(#SVGID_16_)" fill="#43D539" d="M580.4,311.7c0,12.2-9.9,22.1-22.1,22.1c-12.2,0-22.1-9.9-22.1-22.1
			s9.9-22.1,22.1-22.1C570.5,289.6,580.4,299.5,580.4,311.7"/>
	</g>
	<g>
		<defs>
			<rect id="SVGID_17_" x="158.6" y="7.7" width="1124.6" height="1124.8"/>
		</defs>
		<clipPath id="SVGID_18_">
			<use xlink:href="#SVGID_17_"  overflow="visible"/>
		</clipPath>
		<path clip-path="url(#SVGID_18_)" fill="#43D539" d="M464,194.3c0,12.2-9.9,22.1-22.1,22.1c-12.2,0-22.1-9.9-22.1-22.1
			c0-12.2,9.9-22.1,22.1-22.1C454.1,172.2,464,182.1,464,194.3"/>
	</g>
	<g>
		<defs>
			<rect id="SVGID_19_" x="158.6" y="7.7" width="1124.6" height="1124.8"/>
		</defs>
		<clipPath id="SVGID_20_">
			<use xlink:href="#SVGID_19_"  overflow="visible"/>
		</clipPath>
		<path clip-path="url(#SVGID_20_)" fill="#43D539" d="M514.3,472.1c0,12.2-9.9,22.1-22.1,22.1s-22.1-9.9-22.1-22.1
			c0-12.2,9.9-22.1,22.1-22.1S514.3,459.9,514.3,472.1"/>
	</g>
	<g>
		<defs>
			<rect id="SVGID_21_" x="158.6" y="7.7" width="1124.6" height="1124.8"/>
		</defs>
		<clipPath id="SVGID_22_">
			<use xlink:href="#SVGID_21_"  overflow="visible"/>
		</clipPath>
		<path clip-path="url(#SVGID_22_)" fill="#43D539" d="M318.5,760c0,12.2-9.9,22.1-22.1,22.1c-12.2,0-22.1-9.9-22.1-22.1
			c0-12.2,9.9-22.1,22.1-22.1C308.6,737.9,318.5,747.8,318.5,760"/>
	</g>
	<g>
		<defs>
			<rect id="SVGID_23_" x="158.6" y="7.7" width="1124.6" height="1124.8"/>
		</defs>
		<clipPath id="SVGID_24_">
			<use xlink:href="#SVGID_23_"  overflow="visible"/>
		</clipPath>
		<path clip-path="url(#SVGID_24_)" fill="#43D539" d="M495.4,790.7c0,12.2-9.9,22.1-22.1,22.1c-12.2,0-22.1-9.9-22.1-22.1
			c0-12.2,9.9-22.1,22.1-22.1S495.4,778.5,495.4,790.7"/>
	</g>
	<g>
		<defs>
			<rect id="SVGID_25_" x="158.6" y="7.7" width="1124.6" height="1124.8"/>
		</defs>
		<clipPath id="SVGID_26_">
			<use xlink:href="#SVGID_25_"  overflow="visible"/>
		</clipPath>
		<path clip-path="url(#SVGID_26_)" fill="#43D539" d="M670.1,566.5c0,12.2-9.9,22.1-22.1,22.1c-12.2,0-22.1-9.9-22.1-22.1
			c0-12.2,9.9-22.1,22.1-22.1C660.2,544.4,670.1,554.3,670.1,566.5"/>
	</g>
	<g>
		<defs>
			<rect id="SVGID_27_" x="158.6" y="7.7" width="1124.6" height="1124.8"/>
		</defs>
		<clipPath id="SVGID_28_">
			<use xlink:href="#SVGID_27_"  overflow="visible"/>
		</clipPath>
		<path clip-path="url(#SVGID_28_)" fill="#43D539" d="M880.1,561.8c0,12.2-9.9,22.1-22.1,22.1c-12.2,0-22.1-9.9-22.1-22.1
			c0-12.2,9.9-22.1,22.1-22.1C870.2,539.7,880.1,549.6,880.1,561.8"/>
	</g>
	<g>
		<defs>
			<rect id="SVGID_29_" x="158.6" y="7.7" width="1124.6" height="1124.8"/>
		</defs>
		<clipPath id="SVGID_30_">
			<use xlink:href="#SVGID_29_"  overflow="visible"/>
		</clipPath>
		<path clip-path="url(#SVGID_30_)" fill="#43D539" d="M821.1,729.3c0,12.2-9.9,22.1-22.1,22.1c-12.2,0-22.1-9.9-22.1-22.1
			c0-12.2,9.9-22.1,22.1-22.1C811.2,707.3,821.1,717.2,821.1,729.3"/>
	</g>
	<g>
		<defs>
			<rect id="SVGID_31_" x="158.6" y="7.7" width="1124.6" height="1124.8"/>
		</defs>
		<clipPath id="SVGID_32_">
			<use xlink:href="#SVGID_31_"  overflow="visible"/>
		</clipPath>
		<path clip-path="url(#SVGID_32_)" fill="#43D539" d="M620.5,892.2c0,12.2-9.9,22.1-22.1,22.1c-12.2,0-22.1-9.9-22.1-22.1
			c0-12.2,9.9-22.1,22.1-22.1C610.6,870.1,620.5,880,620.5,892.2"/>
	</g>
	<g>
		<defs>
			<rect id="SVGID_33_" x="158.6" y="7.7" width="1124.6" height="1124.8"/>
		</defs>
		<clipPath id="SVGID_34_">
			<use xlink:href="#SVGID_33_"  overflow="visible"/>
		</clipPath>
		<path clip-path="url(#SVGID_34_)" fill="#43D539" d="M573.3,1019.6c0,12.2-9.9,22.1-22.1,22.1s-22.1-9.9-22.1-22.1
			s9.9-22.1,22.1-22.1C563.4,997.5,573.3,1007.4,573.3,1019.6"/>
	</g>
	<g>
		<defs>
			<rect id="SVGID_35_" x="158.6" y="7.7" width="1124.6" height="1124.8"/>
		</defs>
		<clipPath id="SVGID_36_">
			<use xlink:href="#SVGID_35_"  overflow="visible"/>
		</clipPath>
		<path clip-path="url(#SVGID_36_)" fill="#43D539" d="M934.4,1003.1c0,12.2-9.9,22.1-22.1,22.1c-12.2,0-22.1-9.9-22.1-22.1
			s9.9-22.1,22.1-22.1C924.5,981,934.4,990.9,934.4,1003.1"/>
	</g>
	<g>
		<defs>
			<rect id="SVGID_37_" x="158.6" y="7.7" width="1124.6" height="1124.8"/>
		</defs>
		<clipPath id="SVGID_38_">
			<use xlink:href="#SVGID_37_"  overflow="visible"/>
		</clipPath>
		<path clip-path="url(#SVGID_38_)" fill="#43D539" d="M1113.7,734.1c0,12.2-9.9,22.1-22.1,22.1c-12.2,0-22.1-9.9-22.1-22.1
			c0-12.2,9.9-22.1,22.1-22.1C1103.8,712,1113.7,721.9,1113.7,734.1"/>
	</g>
	<g>
		<defs>
			<rect id="SVGID_39_" x="158.6" y="7.7" width="1124.6" height="1124.8"/>
		</defs>
		<clipPath id="SVGID_40_">
			<use xlink:href="#SVGID_39_"  overflow="visible"/>
		</clipPath>
		<path clip-path="url(#SVGID_40_)" fill="#43D539" d="M1212.8,566.5c0,12.2-9.9,22.1-22.1,22.1c-12.2,0-22.1-9.9-22.1-22.1
			c0-12.2,9.9-22.1,22.1-22.1C1202.9,544.4,1212.8,554.3,1212.8,566.5"/>
	</g>
	<g>
		<defs>
			<rect id="SVGID_41_" x="158.6" y="7.7" width="1124.6" height="1124.8"/>
		</defs>
		<clipPath id="SVGID_42_">
			<use xlink:href="#SVGID_41_"  overflow="visible"/>
		</clipPath>
		<path clip-path="url(#SVGID_42_)" fill="#43D539" d="M1158.5,354.1c0,12.2-9.9,22.1-22.1,22.1c-12.2,0-22.1-9.9-22.1-22.1
			s9.9-22.1,22.1-22.1C1148.6,332.1,1158.5,341.9,1158.5,354.1"/>
	</g>
	<g>
		<defs>
			<rect id="SVGID_43_" x="158.6" y="7.7" width="1124.6" height="1124.8"/>
		</defs>
		<clipPath id="SVGID_44_">
			<use xlink:href="#SVGID_43_"  overflow="visible"/>
		</clipPath>
		<path clip-path="url(#SVGID_44_)" fill="#43D539" d="M894.2,875.6c0,12.2-9.9,22.1-22.1,22.1c-12.2,0-22.1-9.9-22.1-22.1
			c0-12.2,9.9-22.1,22.1-22.1C884.3,853.6,894.2,863.4,894.2,875.6"/>
	</g>
	<g>
		<defs>
			<rect id="SVGID_45_" x="158.6" y="7.7" width="1124.6" height="1124.8"/>
		</defs>
		<clipPath id="SVGID_46_">
			<use xlink:href="#SVGID_45_"  overflow="visible"/>
		</clipPath>
		<path clip-path="url(#SVGID_46_)" fill="#43D539" d="M1090.4,481.6c0,17.6-14.3,31.9-31.9,31.9c-17.6,0-31.9-14.3-31.9-31.9
			c0-17.6,14.3-31.9,31.9-31.9C1076.2,449.7,1090.4,464,1090.4,481.6"/>
	</g>
	<g>
		<defs>
			<rect id="SVGID_47_" x="158.6" y="7.7" width="1124.6" height="1124.8"/>
		</defs>
		<clipPath id="SVGID_48_">
			<use xlink:href="#SVGID_47_"  overflow="visible"/>
		</clipPath>
		<path clip-path="url(#SVGID_48_)" fill="#43D539" d="M691.6,750.6c0,17.6-14.3,31.9-31.9,31.9s-31.9-14.3-31.9-31.9
			c0-17.6,14.3-31.9,31.9-31.9S691.6,733,691.6,750.6"/>
	</g>
	<g>
		<defs>
			<rect id="SVGID_49_" x="158.6" y="7.7" width="1124.6" height="1124.8"/>
		</defs>
		<clipPath id="SVGID_50_">
			<use xlink:href="#SVGID_49_"  overflow="visible"/>
		</clipPath>
		<path clip-path="url(#SVGID_50_)" fill="#43D539" d="M476.9,625.5c0,17.6-14.3,31.9-31.9,31.9c-17.6,0-31.9-14.3-31.9-31.9
			c0-17.6,14.2-31.8,31.9-31.8C462.6,593.7,476.9,607.9,476.9,625.5"/>
	</g>
	<g>
		<defs>
			<rect id="SVGID_51_" x="158.6" y="7.7" width="1124.6" height="1124.8"/>
		</defs>
		<clipPath id="SVGID_52_">
			<use xlink:href="#SVGID_51_"  overflow="visible"/>
		</clipPath>
		<path clip-path="url(#SVGID_52_)" fill="#43D539" d="M292.9,540.5c0,17.6-14.3,31.9-31.9,31.9c-17.6,0-31.9-14.3-31.9-31.9
			s14.3-31.9,31.9-31.9C278.6,508.7,292.9,523,292.9,540.5"/>
	</g>
	<g>
		<defs>
			<rect id="SVGID_53_" x="158.6" y="7.7" width="1124.6" height="1124.8"/>
		</defs>
		<clipPath id="SVGID_54_">
			<use xlink:href="#SVGID_53_"  overflow="visible"/>
		</clipPath>
		<path clip-path="url(#SVGID_54_)" fill="#43D539" d="M451,927.5c0,17.6-14.3,31.9-31.9,31.9c-17.6,0-31.9-14.3-31.9-31.9
			c0-17.6,14.3-31.9,31.9-31.9C436.7,895.7,451,910,451,927.5"/>
	</g>
	<g>
		<defs>
			<rect id="SVGID_55_" x="158.6" y="7.7" width="1124.6" height="1124.8"/>
		</defs>
		<clipPath id="SVGID_56_">
			<use xlink:href="#SVGID_55_"  overflow="visible"/>
		</clipPath>
		<path clip-path="url(#SVGID_56_)" fill="#43D539" d="M1085.7,901.6c0,17.6-14.3,31.9-31.9,31.9s-31.9-14.3-31.9-31.9
			s14.3-31.9,31.9-31.9S1085.7,884,1085.7,901.6"/>
	</g>
	<g>
		<defs>
			<rect id="SVGID_57_" x="158.6" y="7.7" width="1124.6" height="1124.8"/>
		</defs>
		<clipPath id="SVGID_58_">
			<use xlink:href="#SVGID_57_"  overflow="visible"/>
		</clipPath>
		<path clip-path="url(#SVGID_58_)" fill="#43D539" d="M1014.9,682.1c0,17.6-14.3,31.9-31.9,31.9s-31.9-14.3-31.9-31.9
			s14.3-31.9,31.9-31.9S1014.9,664.5,1014.9,682.1"/>
	</g>
	<g>
		<defs>
			<rect id="SVGID_59_" x="158.6" y="7.7" width="1124.6" height="1124.8"/>
		</defs>
		<clipPath id="SVGID_60_">
			<use xlink:href="#SVGID_59_"  overflow="visible"/>
		</clipPath>
		<path clip-path="url(#SVGID_60_)" fill="#43D539" d="M771.9,1040.8c0,17.6-14.3,31.9-31.9,31.9s-31.9-14.3-31.9-31.9
			c0-17.6,14.3-31.9,31.9-31.9S771.9,1023.2,771.9,1040.8"/>
	</g>
	<g>
		<defs>
			<rect id="SVGID_61_" x="158.6" y="7.7" width="1124.6" height="1124.8"/>
		</defs>
		<clipPath id="SVGID_62_">
			<use xlink:href="#SVGID_61_"  overflow="visible"/>
		</clipPath>
		<polyline clip-path="url(#SVGID_62_)" fill="#7B7879" points="444.1,197 556.8,312 489.4,481.6 378.9,375.9 443.1,623.1 
			262.9,540 377.8,357.1 439,185.4 648.2,143.1 648,141.8 648.2,143.1 830.1,115.1 740.4,393.8 922.3,347.7 806.9,258.7 
			658.5,153.4 646.5,572.2 729.9,412.7 568.7,294.8 597.4,897.9 662.1,748.6 469.9,798.4 465.2,630 301.9,748.4 243.5,535.8 
			292.9,331.3 550.9,115.4 724.8,385.6 857.5,563.4 1060.1,482.4 992.9,196.6 929.2,343.6 1135.4,355.4 1189.3,566.3 1091.1,732.3 
			984.8,681.5 1070.9,493 1176.9,564.4 869.2,876.8 1058.8,889.1 793.8,716.5 799.1,729.3 910.4,1002 738.6,1027.5 662.4,725 
			550.6,1017.5 420,926.6 292.9,771.2 256.7,544.7 490.6,781.5 428.7,910.3 575.8,893.5 705.8,1031 851.7,875.8 672.4,567.9 
			843.2,574.8 672.1,753 973.8,674.5 470.3,619.6 504.8,483.7 625.1,567.6 626.7,565.4 503.2,479.4 467,621.9 959.2,675.6 
			680.5,748.1 849.2,572.4 667.7,565.1 848.4,875.5 705.8,1027.1 576.8,890.8 433.1,907.1 493.8,781 252.8,537 290.4,772.4 
			418.2,928.5 551.9,1021.6 661.9,733.7 736.6,1030.5 914.1,1004.1 801.5,728.3 799.5,723.3 1048.9,885.8 875.1,874.5 1181,563.9 
			1069.8,489 981.3,682.8 1092.1,735.8 1192.1,566.7 1137.5,352.9 933.1,341.1 992.1,205 1057,480.8 858.4,560.2 726.9,384.1 
			551.5,111.5 290.5,329.8 240.7,535.9 300.3,752.8 462.7,635.1 467.4,801.8 657.5,752.5 599.5,886.4 571.6,300.2 726.5,413.5 
			649.5,560.8 661,158.5 805.3,260.8 916.4,346.5 744.4,390 833.9,111.8 647.8,140.5 437,183.1 375.4,355.9 259.1,541.2 447,627.9 
			383.8,384.3 490.4,486.3 559.9,311.4 446,195.1 444.1,197 		"/>
	</g>
	<g>
		<defs>
			<rect id="SVGID_63_" x="158.6" y="7.7" width="1124.6" height="1124.8"/>
		</defs>
		<clipPath id="SVGID_64_">
			<use xlink:href="#SVGID_63_"  overflow="visible"/>
		</clipPath>
		<path clip-path="url(#SVGID_64_)" fill="#43D539" d="M1182.1,756.2c0,8.8-7.1,15.9-15.9,15.9c-8.8,0-15.9-7.1-15.9-15.9
			c0-8.8,7.1-15.9,15.9-15.9C1175,740.3,1182.1,747.4,1182.1,756.2"/>
	</g>
	<g>
		<defs>
			<rect id="SVGID_65_" x="158.6" y="7.7" width="1124.6" height="1124.8"/>
		</defs>
		<clipPath id="SVGID_66_">
			<use xlink:href="#SVGID_65_"  overflow="visible"/>
		</clipPath>
		<path clip-path="url(#SVGID_66_)" fill="#43D539" d="M1206,428.5c0,8.8-7.1,15.9-15.9,15.9c-8.8,0-15.9-7.1-15.9-15.9
			c0-8.8,7.1-15.9,15.9-15.9C1198.9,412.6,1206,419.7,1206,428.5"/>
	</g>
	<g>
		<defs>
			<rect id="SVGID_67_" x="158.6" y="7.7" width="1124.6" height="1124.8"/>
		</defs>
		<clipPath id="SVGID_68_">
			<use xlink:href="#SVGID_67_"  overflow="visible"/>
		</clipPath>
		<path clip-path="url(#SVGID_68_)" fill="#43D539" d="M1098,246.2c0,8.8-7.1,15.9-15.9,15.9c-8.8,0-15.9-7.1-15.9-15.9
			c0-8.8,7.1-15.9,15.9-15.9C1090.9,230.3,1098,237.4,1098,246.2"/>
	</g>
	<g>
		<defs>
			<rect id="SVGID_69_" x="158.6" y="7.7" width="1124.6" height="1124.8"/>
		</defs>
		<clipPath id="SVGID_70_">
			<use xlink:href="#SVGID_69_"  overflow="visible"/>
		</clipPath>
		<path clip-path="url(#SVGID_70_)" fill="#43D539" d="M940.5,134.7c0,8.8-7.1,15.9-15.9,15.9c-8.8,0-15.9-7.1-15.9-15.9
			c0-8.8,7.1-15.9,15.9-15.9C933.4,118.8,940.5,125.9,940.5,134.7"/>
	</g>
	<g>
		<defs>
			<rect id="SVGID_71_" x="158.6" y="7.7" width="1124.6" height="1124.8"/>
		</defs>
		<clipPath id="SVGID_72_">
			<use xlink:href="#SVGID_71_"  overflow="visible"/>
		</clipPath>
		<path clip-path="url(#SVGID_72_)" fill="#43D539" d="M714,83.4c0,8.8-7.1,15.9-15.9,15.9s-15.9-7.1-15.9-15.9s7.1-15.9,15.9-15.9
			C706.9,67.5,714,74.6,714,83.4"/>
	</g>
	<g>
		<defs>
			<rect id="SVGID_73_" x="158.6" y="7.7" width="1124.6" height="1124.8"/>
		</defs>
		<clipPath id="SVGID_74_">
			<use xlink:href="#SVGID_73_"  overflow="visible"/>
		</clipPath>
		<path clip-path="url(#SVGID_74_)" fill="#43D539" d="M568,109.9c0,8.8-7.1,15.9-15.9,15.9c-8.8,0-15.9-7.1-15.9-15.9
			S543.3,94,552.1,94C560.9,94,568,101.1,568,109.9"/>
	</g>
	<g>
		<defs>
			<rect id="SVGID_75_" x="158.6" y="7.7" width="1124.6" height="1124.8"/>
		</defs>
		<clipPath id="SVGID_76_">
			<use xlink:href="#SVGID_75_"  overflow="visible"/>
		</clipPath>
		<path clip-path="url(#SVGID_76_)" fill="#43D539" d="M307,334.7c0,8.8-7.1,15.9-15.9,15.9s-15.9-7.1-15.9-15.9
			c0-8.8,7.1-15.9,15.9-15.9S307,325.9,307,334.7"/>
	</g>
	<g>
		<defs>
			<rect id="SVGID_77_" x="158.6" y="7.7" width="1124.6" height="1124.8"/>
		</defs>
		<clipPath id="SVGID_78_">
			<use xlink:href="#SVGID_77_"  overflow="visible"/>
		</clipPath>
		<polyline clip-path="url(#SVGID_78_)" fill="#7B7879" points="434.9,192.5 698.2,84.8 924.1,135.9 1081.2,247.1 1188.8,428.9 
			1204.7,573.5 1165,755.6 1063.5,898.3 908.2,1013 740.5,1046.6 555.3,1028.9 420,926.6 285.2,757.1 243.4,535.6 240.8,536.1 
			282.8,758.2 418.1,928.5 554.3,1031.5 740.7,1049.2 909.3,1015.5 1065.4,900.2 1167.5,756.7 1207.4,573.7 1191.4,428.1 
			1083.2,245.3 925.2,133.5 698,82 433.9,190.1 434.9,192.5 		"/>
	</g>
	<g>
		<defs>
			<rect id="SVGID_79_" x="158.6" y="7.7" width="1124.6" height="1124.8"/>
		</defs>
		<clipPath id="SVGID_80_">
			<use xlink:href="#SVGID_79_"  overflow="visible"/>
		</clipPath>
		<polyline clip-path="url(#SVGID_80_)" fill="#FFFFFF" points="283.1,330.3 438.9,185.2 437.1,183.3 281.3,328.4 		"/>
	</g>
</g>
<g>
	<g>
		<defs>
			<rect id="SVGID_81_" x="365.5" y="862.5" width="138.3" height="131.5"/>
		</defs>
		<clipPath id="SVGID_82_">
			<use xlink:href="#SVGID_81_"  overflow="visible"/>
		</clipPath>
		<path clip-path="url(#SVGID_82_)" fill="#545353" d="M434.5,862.5c-2.1,0-4.3,0.1-6.4,0.3c-2.1,0.2-4.3,0.5-6.4,0.9
			c-2.1,0.4-4.2,0.9-6.2,1.6c-2.1,0.6-4.1,1.3-6,2.2c-2,0.8-3.9,1.7-5.8,2.8c-1.9,1-3.7,2.1-5.5,3.3c-1.8,1.2-3.5,2.5-5.2,3.8
			c-1.7,1.4-3.3,2.8-4.8,4.3c-1.5,1.5-3,3.1-4.3,4.8c-1.4,1.7-2.6,3.4-3.8,5.2c-1.2,1.8-2.3,3.6-3.3,5.5s-1.9,3.8-2.8,5.8
			s-1.5,4-2.2,6.1c-0.6,2.1-1.1,4.1-1.6,6.2c-0.4,2.1-0.7,4.2-0.9,6.4c-0.2,2.1-0.3,4.3-0.3,6.4c0,2.1,0.1,4.3,0.3,6.4
			c0.2,2.1,0.5,4.3,0.9,6.4c0.4,2.1,0.9,4.2,1.6,6.2s1.3,4.1,2.2,6.1s1.7,3.9,2.8,5.8c1,1.9,2.1,3.7,3.3,5.5
			c1.2,1.8,2.5,3.5,3.8,5.2s2.8,3.3,4.3,4.8c1.5,1.5,3.1,3,4.8,4.3c1.7,1.4,3.4,2.6,5.2,3.8c1.8,1.2,3.6,2.3,5.5,3.3
			c1.9,1,3.8,1.9,5.8,2.8c2,0.8,4,1.5,6,2.2c2.1,0.6,4.1,1.1,6.2,1.6c2.1,0.4,4.2,0.7,6.4,0.9c2.1,0.2,4.3,0.3,6.4,0.3
			c2.1,0,4.3-0.1,6.4-0.3s4.3-0.5,6.4-0.9s4.2-0.9,6.2-1.6c2.1-0.6,4.1-1.3,6.1-2.2c2-0.8,3.9-1.7,5.8-2.8c1.9-1,3.7-2.1,5.5-3.3
			c1.8-1.2,3.5-2.5,5.2-3.8c1.7-1.4,3.3-2.8,4.8-4.3c1.5-1.5,3-3.1,4.3-4.8c1.4-1.7,2.6-3.4,3.8-5.2c1.2-1.8,2.3-3.6,3.3-5.5
			s1.9-3.8,2.8-5.8c0.8-2,1.5-4,2.2-6.1c0.6-2.1,1.1-4.1,1.6-6.2c0.4-2.1,0.7-4.2,0.9-6.4c0.2-2.1,0.3-4.3,0.3-6.4
			c0-2.1-0.1-4.3-0.3-6.4c-0.2-2.1-0.5-4.3-0.9-6.4c-0.4-2.1-0.9-4.2-1.6-6.2s-1.3-4.1-2.2-6.1s-1.7-3.9-2.8-5.8
			c-1-1.9-2.1-3.7-3.3-5.5c-1.2-1.8-2.5-3.5-3.8-5.2c-1.4-1.7-2.8-3.3-4.3-4.8c-1.5-1.5-3.1-3-4.8-4.3c-1.7-1.4-3.4-2.6-5.2-3.8
			c-1.8-1.2-3.6-2.3-5.5-3.3s-3.8-1.9-5.8-2.8c-2-0.8-4-1.5-6.1-2.2c-2.1-0.6-4.1-1.1-6.2-1.6c-2.1-0.4-4.2-0.7-6.4-0.9
			S436.6,862.5,434.5,862.5z"/>
	</g>
	<g>
		<defs>
			<rect id="SVGID_83_" x="365.5" y="862.5" width="138.3" height="131.5"/>
		</defs>
		<clipPath id="SVGID_84_">
			<use xlink:href="#SVGID_83_"  overflow="visible"/>
		</clipPath>
		<a href="https://www.facebook.com.br">
			<path clip-path="url(#SVGID_84_)" fill="#43D539" d="M443.3,945.5h17l2.7-17.2h-19.6v-9.4c0-7.2,2.3-13.5,9-13.5h10.8v-15
				c-1.9-0.3-5.9-0.8-13.4-0.8c-15.8,0-25,8.3-25,27.3v11.5h-16.2v17.2h16.2v47.4c3.2,0.5,6.5,0.8,9.8,0.8c3,0,6-0.3,8.9-0.7
				L443.3,945.5L443.3,945.5z"/>
		</a>
	</g>
</g>
<g>
	<g>
		<defs>
			<rect id="SVGID_85_" x="206.2" y="252.7" width="138.3" height="131.5"/>
		</defs>
		<clipPath id="SVGID_86_">
			<use xlink:href="#SVGID_85_"  overflow="visible"/>
		</clipPath>
		<a href="https://www.linkedin.com/company/neocert-oficial/">
			<path clip-path="url(#SVGID_86_)" fill="#545353" d="M275.4,252.7c-2.1,0-4.3,0.1-6.4,0.3c-2.1,0.2-4.3,0.5-6.4,0.9
				c-2.1,0.4-4.2,0.9-6.2,1.6c-2.1,0.6-4.1,1.3-6.1,2.2c-2,0.8-3.9,1.7-5.8,2.8c-1.9,1-3.7,2.1-5.5,3.3c-1.8,1.2-3.5,2.5-5.2,3.8
				s-3.3,2.8-4.8,4.3c-1.5,1.5-3,3.1-4.3,4.8c-1.4,1.7-2.6,3.4-3.8,5.2s-2.3,3.6-3.3,5.5c-1,1.9-1.9,3.8-2.8,5.8
				c-0.8,2-1.5,4-2.2,6.1c-0.6,2.1-1.1,4.1-1.6,6.2c-0.4,2.1-0.7,4.2-1,6.4c-0.2,2.1-0.3,4.3-0.3,6.4c0,2.1,0.1,4.3,0.3,6.4
				s0.5,4.3,1,6.4c0.4,2.1,0.9,4.2,1.6,6.2c0.6,2.1,1.3,4.1,2.2,6.1c0.8,2,1.7,3.9,2.8,5.8c1,1.9,2.1,3.7,3.3,5.5s2.5,3.5,3.8,5.2
				c1.4,1.7,2.8,3.3,4.3,4.8c1.5,1.5,3.1,3,4.8,4.3c1.7,1.4,3.4,2.6,5.2,3.8c1.8,1.2,3.6,2.3,5.5,3.3s3.8,1.9,5.8,2.8
				c2,0.8,4,1.5,6.1,2.2c2.1,0.6,4.1,1.1,6.2,1.6c2.1,0.4,4.2,0.7,6.4,0.9c2.1,0.2,4.3,0.3,6.4,0.3c2.1,0,4.3-0.1,6.4-0.3
				c2.1-0.2,4.3-0.5,6.4-0.9c2.1-0.4,4.2-0.9,6.2-1.6s4.1-1.3,6.1-2.2c2-0.8,3.9-1.7,5.8-2.8c1.9-1,3.7-2.1,5.5-3.3
				c1.8-1.2,3.5-2.5,5.2-3.8c1.7-1.4,3.3-2.8,4.8-4.3c1.5-1.5,3-3.1,4.3-4.8c1.4-1.7,2.6-3.4,3.8-5.2s2.3-3.6,3.3-5.5
				c1-1.9,1.9-3.8,2.8-5.8c0.8-2,1.5-4,2.2-6.1c0.6-2.1,1.1-4.1,1.6-6.2c0.4-2.1,0.7-4.2,1-6.4c0.2-2.1,0.3-4.3,0.3-6.4
				c0-2.1-0.1-4.3-0.3-6.4c-0.2-2.1-0.5-4.3-1-6.4c-0.4-2.1-0.9-4.2-1.6-6.2c-0.6-2.1-1.3-4.1-2.2-6.1c-0.8-2-1.7-3.9-2.8-5.8
				c-1-1.9-2.1-3.7-3.3-5.5s-2.5-3.5-3.8-5.2c-1.4-1.7-2.8-3.3-4.3-4.8c-1.5-1.5-3.1-3-4.8-4.3s-3.4-2.6-5.2-3.8
				c-1.8-1.2-3.6-2.3-5.5-3.3s-3.8-1.9-5.8-2.8s-4-1.5-6.1-2.2c-2.1-0.6-4.1-1.1-6.2-1.6c-2.1-0.4-4.2-0.7-6.4-0.9
				C279.7,252.8,277.6,252.7,275.4,252.7z"/>
		</a>
	</g>
	<g>
		<defs>
			<rect id="SVGID_87_" x="206.2" y="252.7" width="138.3" height="131.5"/>
		</defs>
		<clipPath id="SVGID_88_">
			<use xlink:href="#SVGID_87_"  overflow="visible"/>
		</clipPath>
		<a href="https://instagram.com/neocert_oficial"><path clip-path="url(#SVGID_88_)" fill="#43D539" d="M311.5,320c0-10-8.1-18-18.1-18c-6.1,0-11.5,3-14.8,7.7v-7.7h-13.1v49.2h13.1
			v-26.2c0-5.4,4.4-9.8,9.8-9.8c5.4,0,9.8,4.4,9.8,9.8v26.2h13.1C311.5,351.1,311.5,321.4,311.5,320z M249.1,295.4L249.1,295.4
			c-4,0-6.5-2.9-6.5-6.6c0-3.7,2.6-6.6,6.6-6.6c4,0,6.5,2.8,6.5,6.6C255.7,292.5,253.2,295.4,249.1,295.4z M242.6,301.9h13.1v49.2
			h-13.1V301.9z"/></a>
	</g>
</g>
<g>
	<g>
		<defs>
			
				<rect id="SVGID_89_" x="227.2" y="702.4" transform="matrix(-0.2683 0.9633 -0.9633 -0.2683 1119.191 693.0225)" width="138.3" height="138.3"/>
		</defs>
		<clipPath id="SVGID_90_">
			<use xlink:href="#SVGID_89_"  overflow="visible"/>
		</clipPath>
		<a href="https://instagram.com/neocert_oficial">
			<ellipse clip-path="url(#SVGID_90_)" fill="#545353" cx="296.2" cy="771.2" rx="66.3" ry="66.3"/>
		</a>
	</g>
	<g>
		<defs>
			<rect id="SVGID_91_" x="226.8" y="702.3" width="138.3" height="138.3"/>
		</defs>
		<clipPath id="SVGID_92_">
			<use xlink:href="#SVGID_91_"  overflow="visible"/>
		</clipPath>
		<path clip-path="url(#SVGID_92_)" fill="#43D539" d="M297,759.1c-7.7,0-13.9,6-13.9,13.5c0,7.4,6.2,13.5,13.9,13.5
			c7.7,0,13.9-6,13.9-13.5C310.9,765.1,304.6,759.1,297,759.1z M323.7,767.4h-6.1c0.6,1.9,0.9,3.9,0.9,5.9
			c0,11.5-9.6,20.8-21.5,20.8c-11.9,0-21.5-9.3-21.5-20.8c0-2.1,0.3-4.1,0.9-5.9H270v29.2c0,1.5,1.2,2.7,2.8,2.7h48.2
			c1.5,0,2.8-1.2,2.8-2.7V767.4L323.7,767.4z M312.7,745.8c-1.7,0-3.1,1.4-3.1,3.1v7.5c0,1.7,1.4,3.1,3.1,3.1h7.8
			c1.7,0,3.1-1.4,3.1-3.1v-7.5c0-1.7-1.4-3.1-3.1-3.1H312.7z M271.2,738.1h51.4c4.9,0,8.9,4,8.9,8.9v51.4c0,4.9-4,8.9-8.9,8.9h-51.4
			c-4.9,0-8.9-4-8.9-8.9V747C262.3,742.1,266.3,738.1,271.2,738.1z"/>
	</g>
</g>
<g>
	<g>
		<defs>
			<rect id="SVGID_93_" x="158.6" y="495.3" width="147.4" height="104.3"/>
		</defs>
		<clipPath id="SVGID_94_">
			<use xlink:href="#SVGID_93_"  overflow="visible"/>
		</clipPath>
		<a href="https://youtube.com.br">
			<path clip-path="url(#SVGID_94_)" fill="#545353" d="M217.2,566.7v-41.5l39.7,20.8L217.2,566.7z M304.4,518c0,0-1.4-10.2-5.8-14.7
				c-5.6-5.9-11.9-5.9-14.7-6.3c-20.6-1.5-51.4-1.5-51.4-1.5h-0.1c0,0-30.8,0-51.4,1.5c-2.9,0.3-9.1,0.4-14.7,6.3
				c-4.4,4.5-5.8,14.7-5.8,14.7s-1.5,11.9-1.5,23.9v11.2c0,12,1.5,23.9,1.5,23.9s1.4,10.2,5.8,14.7c5.6,5.9,12.9,5.7,16.2,6.3
				c11.8,1.1,50,1.5,50,1.5s30.9,0,51.4-1.5c2.9-0.3,9.1-0.4,14.7-6.3c4.4-4.5,5.8-14.7,5.8-14.7s1.5-12,1.5-23.9v-11.2
				C305.8,529.9,304.4,518,304.4,518z"/>
		</a>
	</g>
	<g>
		<defs>
			<rect id="SVGID_95_" x="158.6" y="495.3" width="147.4" height="104.3"/>
		</defs>
		<clipPath id="SVGID_96_">
			<use xlink:href="#SVGID_95_"  overflow="visible"/>
		</clipPath>
		<polygon clip-path="url(#SVGID_96_)" fill="#43D539" points="217.2,525.1 217.2,566.7 256.9,546 		"/>
	</g>
</g>
</svg>
