<?xml version="1.0" encoding="utf-8"?>
<!-- Generator: Adobe Illustrator 24.2.0, SVG Export Plug-In . SVG Version: 6.00 Build 0)  -->
<svg version="1.1" id="Camada_1" xmlns="http://www.w3.org/2000/svg" xmlns:xlink="http://www.w3.org/1999/xlink" x="0px" y="0px"
	 viewBox="0 0 750 750" style="enable-background:new 0 0 750 750;" xml:space="preserve">
<style type="text/css">
	.st0{clip-path:url(#SVGID_2_);fill:#43D539;}
	.st1{clip-path:url(#SVGID_2_);fill:#7B7879;}
	.st2{clip-path:url(#SVGID_2_);fill:#FFFFFF;}
	.st3{clip-path:url(#SVGID_4_);fill:#545353;}
	.st4{clip-path:url(#SVGID_4_);fill:#43D539;}
	.st5{clip-path:url(#SVGID_6_);fill:#545353;}
	.st6{clip-path:url(#SVGID_6_);fill:#43D539;}
	.st7{clip-path:url(#SVGID_8_);fill:#545353;}
	.st8{clip-path:url(#SVGID_8_);fill:#43D539;}
	.st9{clip-path:url(#SVGID_10_);fill:#545353;}
	.st10{clip-path:url(#SVGID_10_);fill:#43D539;}
</style>
<g>
	<defs>
		<rect id="SVGID_1_" x="11.14" y="5.08" width="743.86" height="744"/>
	</defs>
	<clipPath id="SVGID_2_">
		<use xlink:href="#SVGID_1_"  style="overflow:visible;"/>
	</clipPath>
	<path class="st0" d="M355.93,93.77c0,11.64-9.43,21.07-21.07,21.07c-11.64,0-21.07-9.43-21.07-21.07
		c0-11.64,9.43-21.07,21.07-21.07C346.5,72.7,355.93,82.13,355.93,93.77"/>
	<path class="st0" d="M176.43,243.61c0,11.64-9.43,21.07-21.07,21.07c-11.63,0-21.07-9.43-21.07-21.07
		c0-11.64,9.43-21.07,21.07-21.07C167,222.54,176.43,231.97,176.43,243.61"/>
	<path class="st0" d="M582.26,142.16c0,11.63-9.43,21.07-21.07,21.07c-11.65,0-21.08-9.44-21.08-21.07
		c0-11.64,9.43-21.07,21.08-21.07C572.83,121.09,582.26,130.52,582.26,142.16"/>
	<path class="st0" d="M418.36,259.22c0,11.64-9.43,21.08-21.07,21.08s-21.07-9.45-21.07-21.08c0-11.64,9.43-21.07,21.07-21.07
		S418.36,247.58,418.36,259.22"/>
	<path class="st0" d="M466.53,78.17c0,8.06-6.54,14.6-14.61,14.6s-14.59-6.54-14.59-14.6c0-8.07,6.53-14.61,14.59-14.61
		C459.99,63.56,466.53,70.09,466.53,78.17"/>
	<path class="st0" d="M536.76,226.44c0,8.07-6.54,14.61-14.61,14.61c-8.05,0-14.59-6.54-14.59-14.61s6.54-14.61,14.59-14.61
		C530.22,211.83,536.76,218.38,536.76,226.44"/>
	<path class="st0" d="M444.67,164.01c0,8.07-6.53,14.61-14.59,14.61c-8.08,0-14.61-6.54-14.61-14.61c0-8.06,6.53-14.61,14.61-14.61
		C438.15,149.4,444.67,155.94,444.67,164.01"/>
	<path class="st0" d="M290.15,206.15c0,8.07-6.54,14.61-14.61,14.61c-8.07,0-14.59-6.54-14.59-14.61s6.53-14.59,14.59-14.59
		C283.61,191.55,290.15,198.08,290.15,206.15"/>
	<path class="st0" d="M213.18,128.5c0,8.07-6.54,14.61-14.61,14.61c-8.05,0-14.59-6.54-14.59-14.61c0-8.06,6.54-14.61,14.59-14.61
		C206.64,113.89,213.18,120.43,213.18,128.5"/>
	<path class="st0" d="M246.44,312.29c0,8.07-6.53,14.61-14.59,14.61s-14.61-6.54-14.61-14.61s6.54-14.59,14.61-14.59
		S246.44,304.22,246.44,312.29"/>
	<path class="st0" d="M116.9,502.71c0,8.07-6.54,14.61-14.61,14.61c-8.07,0-14.6-6.54-14.6-14.61c0-8.07,6.53-14.61,14.6-14.61
		C110.36,488.1,116.9,494.65,116.9,502.71"/>
	<path class="st0" d="M233.97,523.01c0,8.07-6.54,14.59-14.61,14.59c-8.07,0-14.59-6.53-14.59-14.59c0-8.07,6.53-14.61,14.59-14.61
		C227.42,508.4,233.97,514.94,233.97,523.01"/>
	<path class="st0" d="M349.47,374.72c0,8.07-6.54,14.61-14.61,14.61c-8.07,0-14.61-6.54-14.61-14.61c0-8.07,6.54-14.59,14.61-14.59
		C342.93,360.12,349.47,366.65,349.47,374.72"/>
	<path class="st0" d="M488.38,371.6c0,8.07-6.54,14.59-14.61,14.59c-8.07,0-14.61-6.53-14.61-14.59s6.54-14.61,14.61-14.61
		C481.84,356.99,488.38,363.54,488.38,371.6"/>
	<path class="st0" d="M449.36,482.42c0,8.07-6.54,14.61-14.61,14.61s-14.61-6.54-14.61-14.61c0-8.05,6.54-14.59,14.61-14.59
		S449.36,474.37,449.36,482.42"/>
	<path class="st0" d="M316.68,590.13c0,8.05-6.53,14.59-14.59,14.59c-8.07,0-14.61-6.54-14.61-14.59c0-8.07,6.54-14.61,14.61-14.61
		C310.15,575.52,316.68,582.06,316.68,590.13"/>
	<path class="st0" d="M285.48,674.4c0,8.07-6.54,14.61-14.61,14.61c-8.07,0-14.61-6.54-14.61-14.61c0-8.07,6.54-14.59,14.61-14.59
		C278.94,659.81,285.48,666.33,285.48,674.4"/>
	<path class="st0" d="M524.29,663.48c0,8.07-6.54,14.61-14.61,14.61c-8.07,0-14.61-6.54-14.61-14.61c0-8.07,6.54-14.61,14.61-14.61
		C517.74,648.87,524.29,655.42,524.29,663.48"/>
	<path class="st0" d="M642.91,485.55c0,8.07-6.54,14.59-14.61,14.59c-8.05,0-14.59-6.53-14.59-14.59c0-8.07,6.54-14.61,14.59-14.61
		C636.36,470.94,642.91,477.48,642.91,485.55"/>
	<path class="st0" d="M708.45,374.74c0,8.05-6.53,14.59-14.59,14.59s-14.61-6.54-14.61-14.59c0-8.08,6.54-14.61,14.61-14.61
		S708.45,366.65,708.45,374.74"/>
	<path class="st0" d="M672.56,234.25c0,8.07-6.54,14.61-14.61,14.61c-8.07,0-14.59-6.54-14.59-14.61s6.53-14.61,14.59-14.61
		C666.02,219.64,672.56,226.18,672.56,234.25"/>
	<path class="st0" d="M497.75,579.2c0,8.07-6.54,14.61-14.59,14.61c-8.08,0-14.61-6.54-14.61-14.61c0-8.07,6.53-14.59,14.61-14.59
		C491.2,564.6,497.75,571.13,497.75,579.2"/>
	<path class="st0" d="M627.53,318.53c0,11.64-9.43,21.08-21.08,21.08c-11.64,0-21.07-9.45-21.07-21.08s9.43-21.07,21.07-21.07
		C618.09,297.47,627.53,306.9,627.53,318.53"/>
	<path class="st0" d="M363.73,496.48c0,11.62-9.43,21.07-21.07,21.07s-21.07-9.45-21.07-21.07c0-11.65,9.43-21.08,21.07-21.08
		S363.73,484.83,363.73,496.48"/>
	<path class="st0" d="M221.7,413.74c0,11.65-9.43,21.08-21.07,21.08c-11.65,0-21.08-9.43-21.08-21.08
		c0-11.64,9.42-21.05,21.08-21.05C212.27,392.69,221.7,402.1,221.7,413.74"/>
	<path class="st0" d="M99.96,357.55c0,11.64-9.44,21.07-21.07,21.07c-11.64,0-21.07-9.43-21.07-21.07s9.43-21.07,21.07-21.07
		C90.52,336.49,99.96,345.92,99.96,357.55"/>
	<path class="st0" d="M204.54,613.53c0,11.65-9.43,21.08-21.08,21.08c-11.64,0-21.07-9.43-21.07-21.08
		c0-11.62,9.43-21.07,21.07-21.07C195.11,592.46,204.54,601.91,204.54,613.53"/>
	<path class="st0" d="M624.39,596.36c0,11.64-9.43,21.07-21.07,21.07c-11.64,0-21.07-9.43-21.07-21.07
		c0-11.64,9.43-21.07,21.07-21.07C614.96,575.29,624.39,584.72,624.39,596.36"/>
	<path class="st0" d="M577.57,451.2c0,11.64-9.43,21.08-21.07,21.08c-11.64,0-21.07-9.45-21.07-21.08s9.43-21.07,21.07-21.07
		C568.14,430.13,577.57,439.56,577.57,451.2"/>
	<path class="st0" d="M416.8,688.45c0,11.64-9.43,21.07-21.07,21.07s-21.07-9.43-21.07-21.07c0-11.64,9.43-21.07,21.07-21.07
		S416.8,676.81,416.8,688.45"/>
	<polyline class="st1" points="200.01,130.28 274.53,206.36 229.94,318.57 156.86,248.65 199.32,412.18 80.15,357.19 156.15,236.19 
		196.61,122.63 335.03,94.63 334.86,93.77 335,94.64 455.33,76.12 395.98,260.46 516.31,229.98 439.95,171.11 341.84,101.48 
		333.88,378.5 389.05,273.01 282.4,195 301.39,593.93 344.19,495.18 217.08,528.12 213.95,416.75 105.92,495.02 67.3,354.42 
		99.96,219.13 270.66,76.35 385.66,255.04 473.48,372.66 607.47,319.08 562.99,130.03 520.86,227.25 657.27,235.09 692.91,374.6 
		627.96,484.41 557.66,450.8 614.61,326.08 684.69,373.3 481.17,579.95 606.62,588.09 431.32,473.93 434.79,482.42 508.44,662.79 
		394.82,679.67 344.4,479.53 270.45,673.06 184.06,612.88 100,510.14 76.07,360.3 230.78,516.94 189.79,602.1 287.14,591.04 
		373.11,681.93 469.63,579.32 351.03,375.67 463.99,380.2 350.82,498.1 550.41,446.18 217.33,409.87 240.18,319.97 319.76,375.44 
		320.76,374 239.11,317.1 215.14,411.38 540.74,446.88 356.36,494.84 467.95,378.61 347.9,373.79 467.46,579.08 373.09,679.37 
		287.81,589.21 192.74,600 232.9,516.59 73.49,355.19 98.34,510.89 182.86,614.19 271.29,675.77 344.06,485.32 393.51,681.63 
		510.9,664.18 436.42,481.75 435.07,478.45 600.05,585.92 485.11,578.45 687.42,373.02 613.88,323.47 555.35,451.62 628.64,486.67 
		694.79,374.86 658.64,233.41 523.47,225.64 562.5,135.57 605.43,318.02 474.07,370.55 387.09,254.06 271.06,73.73 98.39,218.16 
		65.49,354.45 104.91,497.93 212.29,420.12 215.39,530.37 341.16,497.77 302.79,586.33 284.31,198.58 386.81,273.54 335.84,370.97 
		343.5,104.81 438.92,172.53 512.39,229.17 398.62,258 457.87,73.96 334.72,92.92 195.28,121.12 154.58,235.43 77.61,357.95 
		201.95,415.32 160.11,254.19 230.61,321.64 276.57,205.96 201.25,129.06 200.01,130.29 	"/>
	<path class="st0" d="M688.17,500.18c0,5.81-4.71,10.5-10.5,10.5c-5.81,0-10.52-4.69-10.52-10.5c0-5.79,4.71-10.5,10.52-10.5
		C683.47,489.68,688.17,494.38,688.17,500.18"/>
	<path class="st0" d="M703.97,283.42c0,5.81-4.71,10.5-10.5,10.5c-5.81,0-10.52-4.69-10.52-10.5c0-5.79,4.71-10.5,10.52-10.5
		C699.27,272.92,703.97,277.62,703.97,283.42"/>
	<path class="st0" d="M632.56,162.84c0,5.8-4.71,10.51-10.52,10.51c-5.79,0-10.5-4.7-10.5-10.51c0-5.8,4.71-10.51,10.5-10.51
		C627.86,152.33,632.56,157.04,632.56,162.84"/>
	<path class="st0" d="M528.38,89.1c0,5.8-4.71,10.51-10.52,10.51c-5.79,0-10.5-4.71-10.5-10.51c0-5.81,4.71-10.51,10.5-10.51
		C523.68,78.58,528.38,83.29,528.38,89.1"/>
	<path class="st0" d="M378.53,55.15c0,5.8-4.69,10.5-10.5,10.5c-5.81,0-10.52-4.7-10.52-10.5c0-5.8,4.71-10.51,10.52-10.51
		C373.84,44.63,378.53,49.34,378.53,55.15"/>
	<path class="st0" d="M281.96,72.7c0,5.8-4.71,10.5-10.52,10.5c-5.79,0-10.5-4.7-10.5-10.5c0-5.8,4.71-10.5,10.5-10.5
		C277.26,62.2,281.96,66.9,281.96,72.7"/>
	<path class="st0" d="M109.29,221.37c0,5.81-4.71,10.52-10.51,10.52c-5.8,0-10.51-4.71-10.51-10.52c0-5.79,4.71-10.5,10.51-10.5
		C104.58,210.87,109.29,215.58,109.29,221.37"/>
	<polyline class="st1" points="193.93,127.36 368.11,56.06 517.5,89.9 621.4,163.45 692.62,283.7 703.12,379.35 676.85,499.81 
		609.71,594.19 506.97,670.08 396.08,692.25 273.53,680.58 184.08,612.91 94.92,500.77 67.26,354.28 65.54,354.6 93.28,501.52 
		182.84,614.17 272.88,682.27 396.17,694.01 507.7,671.71 610.99,595.42 678.48,500.53 704.88,379.46 694.31,283.14 622.71,162.23 
		518.23,88.28 367.95,54.22 193.27,125.74 193.93,127.36 	"/>
	<polyline class="st2" points="93.52,218.5 196.54,122.5 195.35,121.23 92.34,217.22 	"/>
</g>
<g>
	<defs>
		<rect id="SVGID_3_" x="147.99" y="570.52" width="91.5" height="87"/>
	</defs>
	<clipPath id="SVGID_4_">
		<use xlink:href="#SVGID_3_"  style="overflow:visible;"/>
	</clipPath>
	<path class="st3" d="M193.63,570.52c-1.42,0-2.84,0.07-4.25,0.21c-1.41,0.14-2.82,0.35-4.21,0.62c-1.39,0.28-2.77,0.62-4.13,1.03
		s-2.69,0.89-4,1.43c-1.31,0.54-2.59,1.15-3.85,1.82c-1.25,0.67-2.47,1.4-3.65,2.19s-2.32,1.63-3.42,2.54
		c-1.1,0.9-2.15,1.85-3.15,2.86c-1,1-1.96,2.06-2.86,3.15c-0.9,1.1-1.75,2.24-2.53,3.42c-0.79,1.18-1.52,2.4-2.19,3.65
		c-0.67,1.25-1.28,2.54-1.82,3.85c-0.54,1.31-1.02,2.65-1.43,4.01s-0.76,2.74-1.03,4.13c-0.28,1.39-0.49,2.8-0.62,4.21
		c-0.14,1.41-0.21,2.83-0.21,4.25c0,1.42,0.07,2.84,0.21,4.25c0.14,1.41,0.35,2.82,0.62,4.21c0.28,1.39,0.62,2.77,1.03,4.13
		c0.41,1.36,0.89,2.7,1.43,4.01c0.54,1.31,1.15,2.6,1.82,3.85c0.67,1.25,1.4,2.47,2.19,3.65c0.79,1.18,1.63,2.32,2.53,3.42
		c0.9,1.1,1.85,2.15,2.86,3.15c1,1,2.05,1.96,3.15,2.86c1.1,0.9,2.24,1.75,3.42,2.54s2.4,1.52,3.65,2.19
		c1.25,0.67,2.53,1.28,3.85,1.82c1.31,0.54,2.65,1.02,4,1.43c1.36,0.41,2.73,0.76,4.13,1.03c1.39,0.28,2.79,0.49,4.21,0.62
		c1.41,0.14,2.83,0.21,4.25,0.21c1.42,0,2.84-0.07,4.25-0.21c1.41-0.14,2.82-0.35,4.21-0.62s2.77-0.62,4.13-1.03
		c1.36-0.41,2.69-0.89,4.01-1.43c1.31-0.54,2.59-1.15,3.85-1.82c1.25-0.67,2.47-1.4,3.65-2.19c1.18-0.79,2.32-1.63,3.42-2.54
		c1.1-0.9,2.15-1.85,3.15-2.86c1-1,1.96-2.06,2.86-3.15c0.9-1.1,1.75-2.24,2.53-3.42s1.52-2.4,2.19-3.65
		c0.67-1.25,1.28-2.54,1.82-3.85c0.54-1.31,1.02-2.65,1.43-4.01c0.41-1.36,0.76-2.74,1.03-4.13c0.28-1.39,0.49-2.8,0.62-4.21
		c0.14-1.41,0.21-2.83,0.21-4.25c0-1.42-0.07-2.84-0.21-4.25c-0.14-1.41-0.35-2.82-0.62-4.21c-0.28-1.39-0.62-2.77-1.03-4.13
		s-0.89-2.7-1.43-4.01c-0.54-1.31-1.15-2.6-1.82-3.85c-0.67-1.25-1.4-2.47-2.19-3.65c-0.79-1.18-1.63-2.32-2.53-3.42
		c-0.9-1.1-1.85-2.15-2.86-3.15c-1-1-2.05-1.96-3.15-2.86c-1.1-0.9-2.24-1.75-3.42-2.54c-1.18-0.79-2.4-1.52-3.65-2.19
		c-1.25-0.67-2.53-1.28-3.85-1.82c-1.31-0.54-2.65-1.02-4.01-1.43c-1.36-0.41-2.73-0.76-4.13-1.03c-1.39-0.28-2.79-0.49-4.21-0.62
		S195.05,570.52,193.63,570.52z"/>
	<path class="st4" d="M199.5,625.4h11.22l1.76-11.41h-12.98v-6.23c0-4.74,1.55-8.94,5.97-8.94h7.12v-9.95
		c-1.25-0.17-3.89-0.54-8.89-0.54c-10.43,0-16.55,5.51-16.55,18.08V614h-10.72v11.41h10.72v31.35c2.12,0.32,4.28,0.54,6.48,0.54
		c2,0,3.94-0.18,5.87-0.44V625.4z"/>
</g>
<g>
	<defs>
		<rect id="SVGID_5_" x="42.67" y="167.17" width="91.5" height="87"/>
	</defs>
	<clipPath id="SVGID_6_">
		<use xlink:href="#SVGID_5_"  style="overflow:visible;"/>
	</clipPath>
	<path class="st5" d="M88.42,167.17c-1.42,0-2.84,0.07-4.25,0.21c-1.41,0.14-2.82,0.35-4.21,0.62s-2.77,0.62-4.13,1.03
		c-1.36,0.41-2.7,0.89-4.01,1.43c-1.31,0.54-2.6,1.15-3.85,1.82c-1.25,0.67-2.47,1.4-3.65,2.19c-1.18,0.79-2.32,1.64-3.42,2.54
		s-2.15,1.85-3.16,2.86c-1.01,1-1.96,2.06-2.86,3.16c-0.9,1.1-1.75,2.24-2.54,3.42c-0.79,1.18-1.52,2.4-2.19,3.65
		c-0.67,1.25-1.28,2.54-1.82,3.85c-0.54,1.31-1.02,2.65-1.44,4.01c-0.41,1.36-0.76,2.74-1.04,4.13c-0.28,1.39-0.49,2.8-0.63,4.21
		c-0.14,1.41-0.21,2.83-0.21,4.25c0,1.42,0.07,2.84,0.21,4.25c0.14,1.41,0.35,2.82,0.63,4.21c0.28,1.39,0.62,2.77,1.04,4.13
		c0.41,1.36,0.89,2.7,1.44,4.01c0.54,1.31,1.15,2.6,1.82,3.85c0.67,1.25,1.4,2.47,2.19,3.65c0.79,1.18,1.64,2.32,2.54,3.42
		c0.9,1.1,1.86,2.15,2.86,3.16c1.01,1,2.06,1.96,3.16,2.86c1.1,0.9,2.24,1.75,3.42,2.54c1.18,0.79,2.4,1.52,3.65,2.19
		s2.54,1.28,3.85,1.82c1.31,0.54,2.65,1.02,4.01,1.43c1.36,0.41,2.74,0.76,4.13,1.03s2.8,0.49,4.21,0.62
		c1.41,0.14,2.83,0.21,4.25,0.21s2.84-0.07,4.25-0.21c1.41-0.14,2.82-0.35,4.21-0.62c1.39-0.28,2.77-0.62,4.13-1.03
		c1.36-0.41,2.7-0.89,4.01-1.43c1.31-0.54,2.6-1.15,3.85-1.82c1.25-0.67,2.47-1.4,3.65-2.19c1.18-0.79,2.32-1.64,3.42-2.54
		c1.1-0.9,2.15-1.85,3.16-2.86c1.01-1,1.96-2.06,2.86-3.16c0.9-1.1,1.75-2.24,2.54-3.42c0.79-1.18,1.52-2.4,2.19-3.65
		c0.67-1.25,1.28-2.54,1.82-3.85c0.54-1.31,1.02-2.65,1.44-4.01c0.41-1.36,0.76-2.74,1.04-4.13c0.28-1.39,0.49-2.8,0.63-4.21
		c0.14-1.41,0.21-2.83,0.21-4.25c0-1.42-0.07-2.84-0.21-4.25c-0.14-1.41-0.35-2.82-0.63-4.21c-0.28-1.39-0.62-2.77-1.04-4.13
		c-0.41-1.36-0.89-2.7-1.44-4.01c-0.54-1.31-1.15-2.6-1.82-3.85s-1.4-2.47-2.19-3.65s-1.64-2.32-2.54-3.42
		c-0.9-1.1-1.86-2.15-2.86-3.16c-1.01-1-2.06-1.96-3.16-2.86s-2.24-1.75-3.42-2.54c-1.18-0.79-2.4-1.52-3.65-2.19
		c-1.25-0.67-2.54-1.28-3.85-1.82c-1.31-0.54-2.65-1.02-4.01-1.43c-1.36-0.41-2.74-0.76-4.13-1.03c-1.39-0.28-2.8-0.49-4.21-0.62
		C91.26,167.24,89.84,167.17,88.42,167.17z"/>
	<path class="st6" d="M112.3,211.65c0-6.59-5.34-11.93-11.94-11.93c-4.04,0-7.61,2.01-9.77,5.09v-5.09h-8.68v32.54h8.68v-17.36
		c0-3.59,2.91-6.51,6.51-6.51s6.51,2.91,6.51,6.51v17.36h8.68C112.3,232.26,112.3,212.56,112.3,211.65z M71.03,195.38h-0.05
		c-2.59,0-4.27-1.93-4.27-4.34c0-2.46,1.73-4.34,4.36-4.34c2.64,0,4.27,1.87,4.32,4.34C75.4,193.45,73.72,195.38,71.03,195.38z
		 M66.72,199.72h8.68v32.54h-8.68V199.72z"/>
</g>
<g>
	<defs>
		<rect id="SVGID_7_" x="56.27" y="464.53" width="91.5" height="91.5"/>
	</defs>
	<clipPath id="SVGID_8_">
		<use xlink:href="#SVGID_7_"  style="overflow:visible;"/>
	</clipPath>
	
		<ellipse transform="matrix(0.2683 -0.9633 0.9633 0.2683 -416.6131 471.7132)" class="st7" cx="102.21" cy="510.1" rx="43.87" ry="43.87"/>
	<path class="st8" d="M102.69,502.12c-5.07,0-9.19,3.99-9.19,8.91c0,4.92,4.12,8.9,9.19,8.9c5.08,0,9.19-3.99,9.19-8.9
		C111.88,506.11,107.76,502.12,102.69,502.12z M120.35,507.6h-4.03c0.38,1.25,0.59,2.56,0.59,3.93c0,7.61-6.37,13.78-14.23,13.78
		c-7.85,0-14.23-6.17-14.23-13.78c0-1.37,0.21-2.68,0.59-3.93h-4.2v19.33c0,1,0.82,1.81,1.82,1.81h31.87c1,0,1.82-0.81,1.82-1.81
		L120.35,507.6L120.35,507.6z M113.1,493.33c-1.13,0-2.06,0.93-2.06,2.06v4.93c0,1.14,0.93,2.06,2.06,2.06h5.17
		c1.13,0,2.06-0.93,2.06-2.06v-4.93c0-1.13-0.93-2.06-2.06-2.06H113.1z M85.64,488.24h34.01c3.23,0,5.87,2.64,5.87,5.87v34.01
		c0,3.23-2.64,5.87-5.87,5.87H85.64c-3.23,0-5.88-2.64-5.88-5.87v-34.01C79.76,490.89,82.41,488.24,85.64,488.24z"/>
</g>
<g>
	<defs>
		<rect id="SVGID_9_" x="11.14" y="327.65" width="97.5" height="69"/>
	</defs>
	<clipPath id="SVGID_10_">
		<use xlink:href="#SVGID_9_"  style="overflow:visible;"/>
	</clipPath>
	<path class="st9" d="M49.89,374.83v-27.47l26.27,13.78L49.89,374.83z M107.57,342.61c0,0-0.95-6.74-3.86-9.7
		c-3.69-3.9-7.84-3.91-9.74-4.14c-13.61-0.99-34.01-0.99-34.01-0.99h-0.04c0,0-20.4,0-34.01,0.99c-1.89,0.23-6.04,0.25-9.74,4.14
		c-2.91,2.97-3.86,9.7-3.86,9.7s-0.97,7.9-0.97,15.82v7.42c0,7.91,0.97,15.82,0.97,15.82s0.95,6.74,3.86,9.7
		c3.7,3.9,8.56,3.77,10.72,4.18c7.78,0.75,33.05,0.99,33.05,0.99s20.42-0.03,34.03-1.02c1.9-0.23,6.04-0.25,9.74-4.14
		c2.91-2.97,3.86-9.7,3.86-9.7s0.97-7.91,0.97-15.82v-7.42C108.54,350.51,107.57,342.61,107.57,342.61z"/>
	<polygon class="st10" points="49.89,347.36 49.89,374.83 76.16,361.14 	"/>
</g>
</svg>
