<?xml version="1.0" encoding="utf-8"?>
<!-- Generator: Adobe Illustrator 18.1.1, SVG Export Plug-In . SVG Version: 6.00 Build 0)  -->
<svg version="1.1" id="Camada_1" xmlns="http://www.w3.org/2000/svg" xmlns:xlink="http://www.w3.org/1999/xlink" x="0px" y="0px"
	 viewBox="640.8 49.2 146.7 182.5" enable-background="new 640.8 49.2 146.7 182.5" xml:space="preserve">
<g id="XMLID_7_">
	<g>
		<g id="XMLID_371_">
			<g>
				<path id="XMLID_376_" fill="#41D537" d="M713.4,50.5c-40,0-72.6,32.6-72.6,72.6c0,4.6,0.4,9.1,1.3,13.6c0,0.3,0.2,1.1,0.5,2.4
					c1.1,4.9,2.7,9.7,4.9,14.3c7.8,18.4,25,46.7,62.7,77c1,0.8,2.1,1.1,3.2,1.1s2.3-0.4,3.2-1.1c37.7-30.3,54.9-58.6,62.8-77
					c2.1-4.6,3.8-9.4,4.9-14.3c0.3-1.4,0.5-2.2,0.5-2.4c0.8-4.5,1.3-9.1,1.3-13.6C786,83.1,753.4,50.5,713.4,50.5L713.4,50.5z
					 M774.6,134.9c0,0.1,0,0.2,0,0.2c0,0.2-0.2,0.8-0.3,1.6v0.1c-1,4.3-2.3,8.4-4.2,12.4c0,0,0,0.1-0.1,0.2
					c-7.1,16.8-22.7,42.5-56.5,70.5c-33.9-28-49.4-53.6-56.5-70.5c0,0,0-0.1-0.1-0.2c-1.8-3.9-3.2-8.1-4.2-12.4v-0.1
					c-0.2-0.9-0.3-1.4-0.3-1.6c0-0.1,0-0.2,0-0.3c-0.8-3.9-1.1-7.8-1.1-11.8c0-34.3,28-62.3,62.3-62.3s62.3,28,62.3,62.3
					C775.7,127.1,775.4,131.1,774.6,134.9L774.6,134.9z"/>
				<path id="XMLID_372_" fill="#41D537" d="M713.4,77.8c-25.4,0-46.1,20.7-46.1,46.1S688,170,713.4,170c25.4,0,46.1-20.7,46.1-46.1
					C759.5,98.5,738.8,77.8,713.4,77.8L713.4,77.8z M713.4,159.7c-19.8,0-35.8-16.1-35.8-35.8S693.7,88,713.4,88
					c19.7,0,35.8,16.1,35.8,35.8C749.2,143.7,733.2,159.7,713.4,159.7L713.4,159.7z"/>
			</g>
		</g>
	</g>
</g>
</svg>
