<?xml version="1.0" encoding="utf-8"?>
<!-- Generator: Adobe Illustrator 18.1.1, SVG Export Plug-In . SVG Version: 6.00 Build 0)  -->
<svg version="1.1" id="Camada_1" xmlns="http://www.w3.org/2000/svg" xmlns:xlink="http://www.w3.org/1999/xlink" x="0px" y="0px"
	 viewBox="620 911.9 174.2 174" enable-background="new 620 911.9 174.2 174" xml:space="preserve">
<g id="XMLID_7_">
	<g>
		<g id="XMLID_394_">
			<g>
				<path id="XMLID_395_" fill="#41D537" d="M766.6,939.5c-15.8-15.9-37-24.6-59.4-24.6c-22.4,0-43.5,8.7-59.4,24.6
					s-24.6,37-24.6,59.4c0,22.4,8.7,43.5,24.6,59.4c15.9,15.8,37,24.6,59.4,24.6c22.4,0,43.5-8.7,59.4-24.6
					c15.8-15.9,24.6-37,24.6-59.4C791.2,976.4,782.5,955.3,766.6,939.5L766.6,939.5z M783.6,995.1h-32.6c-0.3-13-2.1-25.4-5.3-36.5
					c6.2-3.2,12-7.2,17.3-11.9C775.1,959.4,782.7,976.4,783.6,995.1L783.6,995.1z M711,1002.6h32.5c-0.3,11.9-1.9,23.3-4.8,33.6
					c-8.8-3.5-18.1-5.6-27.8-6L711,1002.6L711,1002.6z M757.6,941.4c-4.4,3.9-9.2,7.2-14.2,9.9c-1.3-3.6-2.8-7.1-4.4-10.3
					c-3.2-6.4-7-11.7-11-15.8C739.1,928.4,749.2,933.9,757.6,941.4L757.6,941.4z M711,923.6c7.8,1.7,15.3,9,21.2,20.8
					c1.6,3.2,3,6.6,4.3,10.2c-8.1,3.3-16.6,5.3-25.5,5.7V923.6z M738.8,961.7c2.8,10.2,4.4,21.5,4.7,33.4H711v-27.3
					C720.7,967.4,730.1,965.3,738.8,961.7L738.8,961.7z M703.5,995.1H671c0.3-11.9,1.9-23.2,4.7-33.4c8.8,3.6,18.2,5.6,27.8,6
					L703.5,995.1L703.5,995.1z M703.5,923.6v36.7c-8.9-0.5-17.5-2.4-25.5-5.7c1.3-3.6,2.7-7,4.3-10.2
					C688.3,932.6,695.7,925.3,703.5,923.6L703.5,923.6z M686.6,925.3c-4.1,4.1-7.8,9.3-11,15.8c-1.6,3.2-3.1,6.6-4.4,10.3
					c-5.1-2.7-9.8-6-14.3-9.9C665.4,933.9,675.5,928.4,686.6,925.3L686.6,925.3z M651.5,946.6c5.3,4.7,11.1,8.7,17.3,11.9
					c-3.2,11.1-5,23.6-5.3,36.5h-32.6C631.9,976.4,639.5,959.4,651.5,946.6L651.5,946.6z M630.9,1002.6h32.6
					c0.3,13.1,2.2,25.6,5.4,36.7c-6.2,3.2-12,7.1-17.2,11.9C639.6,1038.3,631.9,1021.3,630.9,1002.6L630.9,1002.6z M657,1056.4
					c4.4-3.8,9.2-7.1,14.2-9.8c1.3,3.5,2.7,6.9,4.4,10.1c3.2,6.4,7,11.7,11,15.8C675.6,1069.3,665.5,1063.8,657,1056.4L657,1056.4z
					 M703.5,1074.1c-7.8-1.7-15.3-9-21.2-20.8c-1.6-3.1-3-6.4-4.2-10c8-3.3,16.6-5.3,25.4-5.7V1074.1z M675.8,1036.2
					c-2.9-10.2-4.5-21.6-4.8-33.6h32.5v27.5C693.9,1030.5,684.5,1032.6,675.8,1036.2L675.8,1036.2z M711.1,1074.1v-36.4
					c8.8,0.5,17.4,2.4,25.4,5.7c-1.3,3.5-2.7,6.9-4.2,10C726.3,1065.1,718.9,1072.3,711.1,1074.1L711.1,1074.1z M728,1072.4
					c4.1-4.1,7.8-9.3,11-15.8c1.6-3.2,3-6.6,4.4-10.1c5,2.7,9.8,6,14.2,9.8C749.1,1063.8,739,1069.3,728,1072.4L728,1072.4z
					 M763,1051.2c-5.3-4.7-11.1-8.7-17.2-11.9c3.2-11.1,5.1-23.7,5.4-36.7h32.6C782.7,1021.3,775.1,1038.3,763,1051.2L763,1051.2z"
					/>
			</g>
		</g>
	</g>
</g>
</svg>
