<?xml version="1.0" encoding="utf-8"?>
<!-- Generator: Adobe Illustrator 18.1.1, SVG Export Plug-In . SVG Version: 6.00 Build 0)  -->
<svg version="1.1" id="Camada_1" xmlns="http://www.w3.org/2000/svg" xmlns:xlink="http://www.w3.org/1999/xlink" x="0px" y="0px"
	 viewBox="663.6 365.6 101.3 179.1" enable-background="new 663.6 365.6 101.3 179.1" xml:space="preserve">
<g id="XMLID_7_">
	<g>
		<g id="XMLID_380_">
			<g>
				<path fill="#41D537" d="M751.9,365.6h-75.3c-7.2,0-13,5.9-13,13v153c0,7.2,5.8,13,13,13h75.3c7.2,0,13-5.8,13-13v-153
					C764.9,371.5,759.1,365.6,751.9,365.6L751.9,365.6z M695.7,373.6h37.2c0.9,0,1.7,1.4,1.7,3.1c0,1.7-0.8,3.2-1.7,3.2h-37.2
					c-1,0-1.7-1.4-1.7-3.2C694,375,694.8,373.6,695.7,373.6L695.7,373.6z M714.3,531.8c-4.6,0-8.3-3.7-8.3-8.3
					c0-4.6,3.7-8.3,8.3-8.3s8.3,3.7,8.3,8.3C722.6,528.1,718.8,531.8,714.3,531.8L714.3,531.8z M755.2,503.3h-81.9V387.7h81.9V503.3
					z"/>
			</g>
		</g>
	</g>
</g>
</svg>
